<svg width="61" height="60" viewBox="0 0 61 60" fill="none" xmlns="http://www.w3.org/2000/svg">
<path d="M34.55 18.75H27.05C26.0146 18.75 25.175 17.9104 25.175 16.875V13.125C25.175 10.0232 27.6982 7.5 30.8 7.5C33.9018 7.5 36.425 10.0232 36.425 13.125V16.875C36.425 17.9104 35.5854 18.75 34.55 18.75ZM28.925 15H32.675V13.125C32.675 12.0913 31.8337 11.25 30.8 11.25C29.7663 11.25 28.925 12.0913 28.925 13.125V15Z" fill="#2AA7FF"/>
<path d="M40.175 15H10.175C7.07318 15 4.54999 17.5232 4.54999 20.625V43.125C4.54999 46.2268 7.07318 48.75 10.175 48.75H13.925V45H10.175C9.1413 45 8.29999 44.1587 8.29999 43.125V20.625C8.29999 19.5913 9.1413 18.75 10.175 18.75H40.175C47.4123 18.75 53.3 24.6377 53.3 31.875V43.125C53.3 44.1587 52.4587 45 51.425 45H47.675V48.75H51.425C54.5268 48.75 57.05 46.2268 57.05 43.125V31.875C57.05 22.5705 49.4795 15 40.175 15Z" fill="#2AA7FF"/>
<path d="M40.175 45H21.425V48.75H40.175V45Z" fill="#2AA7FF"/>
<path d="M17.675 52.5C14.5732 52.5 12.05 49.9768 12.05 46.875C12.05 43.7732 14.5732 41.25 17.675 41.25C20.7768 41.25 23.3 43.7732 23.3 46.875C23.3 49.9768 20.7768 52.5 17.675 52.5ZM17.675 45C16.6413 45 15.8 45.8413 15.8 46.875C15.8 47.9087 16.6413 48.75 17.675 48.75C18.7087 48.75 19.55 47.9087 19.55 46.875C19.55 45.8413 18.7087 45 17.675 45Z" fill="#2AA7FF"/>
<path d="M43.925 52.5C40.8232 52.5 38.3 49.9768 38.3 46.875C38.3 43.7732 40.8232 41.25 43.925 41.25C47.0268 41.25 49.55 43.7732 49.55 46.875C49.55 49.9768 47.0268 52.5 43.925 52.5ZM43.925 45C42.8913 45 42.05 45.8413 42.05 46.875C42.05 47.9087 42.8913 48.75 43.925 48.75C44.9587 48.75 45.8 47.9087 45.8 46.875C45.8 45.8413 44.9587 45 43.925 45Z" fill="#2AA7FF"/>
<path d="M25.175 28.125H21.425V24.375C21.425 23.3396 20.5854 22.5 19.55 22.5C18.5146 22.5 17.675 23.3396 17.675 24.375V28.125H13.925C12.8896 28.125 12.05 28.9646 12.05 30C12.05 31.0354 12.8896 31.875 13.925 31.875H17.675V35.625C17.675 36.6604 18.5146 37.5 19.55 37.5C20.5854 37.5 21.425 36.6604 21.425 35.625V31.875H25.175C26.2104 31.875 27.05 31.0354 27.05 30C27.05 28.9646 26.2104 28.125 25.175 28.125Z" fill="#2AA7FF"/>
<path d="M47.675 37.5H36.425C35.3896 37.5 34.55 36.6604 34.55 35.625V24.375C34.55 23.3396 35.3896 22.5 36.425 22.5H40.175C45.344 22.5 49.55 26.706 49.55 31.875V35.625C49.55 36.6604 48.7104 37.5 47.675 37.5ZM38.3 33.75H45.8V31.875C45.8 28.7732 43.2768 26.25 40.175 26.25H38.3V33.75Z" fill="#2AA7FF"/>
</svg>
