<svg width="80" height="80" viewBox="0 0 80 80" fill="none" xmlns="http://www.w3.org/2000/svg">
<path d="M55.5853 38.5571C55.3148 38.2851 54.9998 38.0544 54.6101 37.9276C53.3698 37.5249 52.2041 36.7996 51.2361 35.8329C50.2706 34.8661 49.5466 33.7014 49.1366 32.4441C47.9113 28.7681 45.1393 25.7849 41.6126 24.2456L37.9443 27.9139C38.2108 28.1816 38.5216 28.4084 38.9046 28.5354C41.4826 29.3946 43.5348 31.4479 44.3881 34.0114C45.0363 35.9961 46.1826 37.8491 47.7011 39.3679C48.9233 40.5901 50.3648 41.5556 51.9131 42.2296L55.5853 38.5571Z" fill="#2AA7FF"/>
<path d="M39.6929 43.8406C40.6694 42.8641 40.6694 41.2819 39.6929 40.3056L32.6227 33.2354L29.0877 36.7704L34.3902 42.0729L20.2484 56.2159L14.9447 50.9134L11.4097 54.4484L18.4809 61.5186C18.9692 62.0069 19.6089 62.2511 20.2484 62.2511C20.8879 62.2511 21.5277 62.0069 22.0162 61.5186L39.6929 43.8406Z" fill="#2AA7FF"/>
<path d="M16.712 75.7811C13.5112 75.7811 10.3107 74.5629 7.87399 72.1264C3.00099 67.2534 3.00099 59.3211 7.87399 54.4481L46.7645 15.5566C47.702 14.6191 49.3622 14.6191 50.2997 15.5566L64.4427 29.6996C65.4192 30.6761 65.4192 32.2581 64.4427 33.2349L25.5512 72.1264C23.1147 74.5629 19.9137 75.7811 16.712 75.7811ZM11.4092 68.5911C14.3327 71.5159 19.09 71.5134 22.016 68.5911L59.14 31.4671L48.532 20.8591L11.4092 57.9834C8.48574 60.9081 8.48574 65.6661 11.4092 68.5911Z" fill="#2AA7FF"/>
<path d="M66.2103 37.5026C65.5706 37.5026 64.9311 37.2584 64.4428 36.7701L43.2293 15.5569C42.7606 15.0881 42.4968 14.4534 42.4968 13.7894C42.4968 13.1254 42.7606 12.4906 43.2293 12.0219L50.3008 4.95161C51.2773 3.97511 52.8593 3.97511 53.8361 4.95161L75.0483 26.1651C76.0248 27.1416 76.0248 28.7236 75.0483 29.7004L67.9781 36.7706C67.4898 37.2589 66.8498 37.5026 66.2103 37.5026ZM48.5321 13.7891L66.2103 31.4674L69.7456 27.9321L52.0686 10.2539L48.5321 13.7891Z" fill="#2AA7FF"/>
</svg>
