<svg width="51" height="51" viewBox="0 0 51 51" fill="none" xmlns="http://www.w3.org/2000/svg">
<g clip-path="url(#clip0_32_1142)">
<path d="M39.621 2.64955C38.3791 1.46565 36.7851 0.899902 35.1809 0.899902C33.38 0.899902 31.5481 1.62281 30.1922 2.99528L29.6127 3.58199L29.0227 2.99528C27.667 1.62281 25.835 0.899902 24.0342 0.899902C22.4299 0.899902 20.836 1.46565 19.5941 2.64955C16.8617 5.25829 16.8099 9.61669 19.4492 12.2883L29.6127 22.5766L39.7762 12.2883C42.405 9.61669 42.3533 5.25829 39.621 2.64955Z" fill="#2AA7FF"/>
<path d="M49.5979 27.8148C48.0351 26.7462 46.1929 27.0501 44.5679 28.0035C42.9327 28.9464 33.5765 37.0451 33.5765 37.0451H24.3651C23.9407 37.0451 23.475 36.5526 23.475 36.123C23.475 35.6202 23.9098 35.222 24.3651 35.222H29.9954C31.9722 35.222 34.1767 33.9229 34.1767 31.6075C34.1767 29.1454 31.9722 27.993 29.9954 27.993C26.5696 27.993 25.9072 28.0035 25.9072 28.0035C24.5411 28.0035 23.1438 27.9196 22.0778 27.3433C20.6495 26.5996 19.0039 26.1804 17.2444 26.1804C14.2948 26.1804 11.6555 27.3748 9.84429 29.2502L0.25 38.8365L10.9621 49.6802L14.5328 46.0657H32.6035C34.4044 46.0657 36.1432 45.3951 37.4783 44.1903L49.7118 30.2979C50.4673 29.6169 50.4156 28.3805 49.5979 27.8148Z" fill="#2AA7FF"/>
</g>
<defs>
<clipPath id="clip0_32_1142">
<rect width="50" height="50" fill="white" transform="translate(0.25 0.290039)"/>
</clipPath>
</defs>
</svg>
