<svg width="20" height="21" viewBox="0 0 20 21" fill="none" xmlns="http://www.w3.org/2000/svg">
<g clip-path="url(#clip0_32_1055)">
<mask id="mask0_32_1055" style="mask-type:luminance" maskUnits="userSpaceOnUse" x="0" y="0" width="20" height="21">
<path d="M20 0.290039H0V20.29H20V0.290039Z" fill="white"/>
</mask>
<g mask="url(#mask0_32_1055)">
<path d="M19.5135 9.10997L18.1494 7.74587C17.8259 7.42238 17.5613 6.78219 17.5613 6.32296V4.39331C17.5613 3.47486 16.8125 2.72608 15.894 2.72608H13.9644C13.5052 2.72608 12.865 2.4614 12.5415 2.13791L11.1774 0.773813C10.5304 0.126828 9.46941 0.126828 8.82017 0.773813L7.45607 2.13791C7.13257 2.4614 6.49011 2.72608 6.03315 2.72608H4.10351C3.18732 2.72608 2.43627 3.47486 2.43627 4.39331V6.32296C2.43627 6.77992 2.1716 7.42238 1.8481 7.74587L0.484006 9.10997C-0.165242 9.75696 -0.165242 10.8179 0.484006 11.4672L1.8481 12.8313C2.1716 13.1548 2.43627 13.7972 2.43627 14.2542V16.1838C2.43627 17.1 3.18732 17.8511 4.10351 17.8511H6.03315C6.49237 17.8511 7.13257 18.1157 7.45607 18.4392L8.82017 19.8033C9.46715 20.4503 10.5281 20.4503 11.1774 19.8033L12.5415 18.4392C12.865 18.1157 13.5052 17.8511 13.9644 17.8511H15.894C16.8102 17.8511 17.5613 17.1 17.5613 16.1838V14.2542C17.5613 13.795 17.8259 13.1548 18.1494 12.8313L19.5135 11.4672C20.1605 10.8202 20.1605 9.75922 19.5135 9.10997Z" fill="#2AA7FF"/>
<path d="M8.888 14.0076L5.26172 10.3813L6.84977 8.79325L8.888 10.8315L13.1477 6.57178L14.7358 8.15984L8.888 14.0076Z" fill="white"/>
</g>
</g>
<defs>
<clipPath id="clip0_32_1055">
<rect width="20" height="20" fill="white" transform="translate(0 0.290039)"/>
</clipPath>
</defs>
</svg>
