<svg width="61" height="60" viewBox="0 0 61 60" fill="none" xmlns="http://www.w3.org/2000/svg">
<path d="M37.8776 29.1514L30.1999 39.8987L22.5221 29.1514L19.1799 30.8226C19.2238 30.9109 19.2405 31.0069 19.2996 31.0896L28.6746 44.2146C29.0261 44.7071 29.5937 45 30.1999 45C30.8061 45 31.3736 44.7071 31.7252 44.2146L41.1002 31.0896C41.1594 31.0069 41.1759 30.9109 41.2198 30.8226L37.8776 29.1514Z" fill="#2AA7FF"/>
<path d="M47.518 31.866L37.2514 26.7422C36.4148 27.7057 35.3985 28.4951 34.2356 29.0535C34.4132 29.3588 34.6485 29.6333 34.9881 29.8024L45.837 35.2168C47.7285 36.1708 48.9499 38.1484 48.9499 40.2559V52.5002H11.4499V40.2559C11.4499 38.1484 12.6713 36.1708 14.5553 35.2206L25.4115 29.8026C25.7513 29.6334 25.9864 29.3589 26.164 29.0537C25.0011 28.4955 23.9848 27.7059 23.1482 26.7424L12.8743 31.8698C9.73033 33.4536 7.69971 36.7459 7.69971 40.2561V54.3754C7.69971 55.4117 8.53839 56.2504 9.57471 56.2504H50.8249C51.8612 56.2504 52.6999 55.4117 52.6999 54.3754V40.2561C52.6999 36.7459 50.6693 33.4536 47.518 31.866Z" fill="#2AA7FF"/>
<path d="M20.825 45H17.075C16.0386 45 15.2 44.1613 15.2 43.125C15.2 42.0887 16.0386 41.25 17.075 41.25H20.825C21.8613 41.25 22.7 42.0887 22.7 43.125C22.7 44.1613 21.8613 45 20.825 45Z" fill="#2AA7FF"/>
<path d="M39.5749 14.9367C32.5935 14.5168 29.6633 11.8105 29.6505 11.7996C29.2275 11.373 28.6288 11.1752 28.0245 11.274C27.4294 11.3712 26.9168 11.7482 26.6475 12.2865L25.3181 14.9453C24.3696 14.872 22.9048 14.709 21.2366 14.3337C21.0964 14.3023 20.9621 14.3245 20.8247 14.3247V18.0762C23.9543 18.7343 26.3462 18.75 26.4497 18.75C27.1601 18.75 27.8083 18.349 28.1269 17.7137L29.0314 15.9047C30.9668 17.0162 34.3506 18.4041 39.4703 18.6898C39.5066 18.6912 39.5385 18.6741 39.5747 18.6733L39.5749 14.9367Z" fill="#2AA7FF"/>
<path d="M30.2 31.875C23.9963 31.875 18.95 26.8286 18.95 20.625V15C18.95 8.79638 23.9963 3.75 30.2 3.75C36.4036 3.75 41.45 8.79638 41.45 15V20.625C41.45 26.8286 36.4036 31.875 30.2 31.875ZM30.2 7.5C26.0635 7.5 22.7 10.8636 22.7 15V20.625C22.7 24.7614 26.0635 28.125 30.2 28.125C34.3364 28.125 37.7 24.7614 37.7 20.625V15C37.7 10.8636 34.3364 7.5 30.2 7.5Z" fill="#2AA7FF"/>
</svg>
