<svg width="533" height="385" viewBox="0 0 533 385" fill="none" xmlns="http://www.w3.org/2000/svg">
<g filter="url(#filter0_d_2217_350)">
<g opacity="0.3">
<rect width="3.99077" height="3.99077" rx="1.14194" transform="matrix(-1 0 0 1 515.812 167.012)" fill="white"/>
<rect width="3.99077" height="3.99077" rx="1.14194" transform="matrix(-1 0 0 1 499.849 167.012)" fill="white"/>
<rect width="3.99077" height="3.99077" rx="1.14194" transform="matrix(-1 0 0 1 483.885 167.012)" fill="white"/>
<rect width="3.99077" height="3.99077" rx="1.14194" transform="matrix(-1 0 0 1 467.923 167.012)" fill="white"/>
<rect width="3.99077" height="3.99077" rx="1.14194" transform="matrix(-1 0 0 1 451.96 167.012)" fill="white"/>
<rect width="3.99077" height="3.99077" rx="1.14194" transform="matrix(-1 0 0 1 435.996 167.012)" fill="white"/>
<rect width="3.99077" height="3.99077" rx="1.14194" transform="matrix(-1 0 0 1 420.033 167.012)" fill="white"/>
<rect width="3.99077" height="3.99077" rx="1.14194" transform="matrix(-1 0 0 1 404.07 167.012)" fill="white"/>
<rect width="3.99077" height="3.99077" rx="1.14194" transform="matrix(-1 0 0 1 388.107 167.012)" fill="white"/>
<rect width="3.99077" height="3.99077" rx="1.14194" transform="matrix(-1 0 0 1 372.144 167.012)" fill="white"/>
<rect width="3.99077" height="3.99077" rx="1.14194" transform="matrix(-1 0 0 1 515.812 182.975)" fill="white"/>
<rect width="3.99077" height="3.99077" rx="1.14194" transform="matrix(-1 0 0 1 499.849 182.975)" fill="white"/>
<rect width="3.99077" height="3.99077" rx="1.14194" transform="matrix(-1 0 0 1 483.885 182.975)" fill="white"/>
<rect width="3.99077" height="3.99077" rx="1.14194" transform="matrix(-1 0 0 1 467.923 182.975)" fill="white"/>
<rect width="3.99077" height="3.99077" rx="1.14194" transform="matrix(-1 0 0 1 451.96 182.975)" fill="white"/>
<rect width="3.99077" height="3.99077" rx="1.14194" transform="matrix(-1 0 0 1 435.996 182.975)" fill="white"/>
<rect width="3.99077" height="3.99077" rx="1.14194" transform="matrix(-1 0 0 1 420.033 182.975)" fill="white"/>
<rect width="3.99077" height="3.99077" rx="1.14194" transform="matrix(-1 0 0 1 404.07 182.975)" fill="white"/>
<rect width="3.99077" height="3.99077" rx="1.14194" transform="matrix(-1 0 0 1 388.107 182.975)" fill="white"/>
<rect width="3.99077" height="3.99077" rx="1.14194" transform="matrix(-1 0 0 1 372.144 182.975)" fill="white"/>
<rect width="3.99077" height="3.99077" rx="1.14194" transform="matrix(-1 0 0 1 515.812 198.938)" fill="white"/>
<rect width="3.99077" height="3.99077" rx="1.14194" transform="matrix(-1 0 0 1 499.849 198.938)" fill="white"/>
<rect width="3.99077" height="3.99077" rx="1.14194" transform="matrix(-1 0 0 1 483.885 198.938)" fill="white"/>
<rect width="3.99077" height="3.99077" rx="1.14194" transform="matrix(-1 0 0 1 467.923 198.938)" fill="white"/>
<rect width="3.99077" height="3.99077" rx="1.14194" transform="matrix(-1 0 0 1 451.96 198.938)" fill="white"/>
<rect width="3.99077" height="3.99077" rx="1.14194" transform="matrix(-1 0 0 1 435.996 198.938)" fill="white"/>
<rect width="3.99077" height="3.99077" rx="1.14194" transform="matrix(-1 0 0 1 420.033 198.938)" fill="white"/>
<rect width="3.99077" height="3.99077" rx="1.14194" transform="matrix(-1 0 0 1 404.07 198.938)" fill="white"/>
<rect width="3.99077" height="3.99077" rx="1.14194" transform="matrix(-1 0 0 1 388.107 198.938)" fill="white"/>
<rect width="3.99077" height="3.99077" rx="1.14194" transform="matrix(-1 0 0 1 372.144 198.938)" fill="white"/>
<rect width="3.99077" height="3.99077" rx="1.14194" transform="matrix(-1 0 0 1 515.812 214.9)" fill="white"/>
<rect width="3.99077" height="3.99077" rx="1.14194" transform="matrix(-1 0 0 1 499.849 214.9)" fill="white"/>
<rect width="3.99077" height="3.99077" rx="1.14194" transform="matrix(-1 0 0 1 483.885 214.9)" fill="white"/>
<rect width="3.99077" height="3.99077" rx="1.14194" transform="matrix(-1 0 0 1 467.923 214.9)" fill="white"/>
<rect width="3.99077" height="3.99077" rx="1.14194" transform="matrix(-1 0 0 1 451.96 214.9)" fill="white"/>
<rect width="3.99077" height="3.99077" rx="1.14194" transform="matrix(-1 0 0 1 435.996 214.9)" fill="white"/>
<rect width="3.99077" height="3.99077" rx="1.14194" transform="matrix(-1 0 0 1 420.033 214.9)" fill="white"/>
<rect width="3.99077" height="3.99077" rx="1.14194" transform="matrix(-1 0 0 1 404.07 214.9)" fill="white"/>
<rect width="3.99077" height="3.99077" rx="1.14194" transform="matrix(-1 0 0 1 388.107 214.9)" fill="white"/>
<rect width="3.99077" height="3.99077" rx="1.14194" transform="matrix(-1 0 0 1 372.144 214.9)" fill="white"/>
<rect width="3.99077" height="3.99077" rx="1.14194" transform="matrix(-1 0 0 1 515.812 230.864)" fill="white"/>
<rect width="3.99077" height="3.99077" rx="1.14194" transform="matrix(-1 0 0 1 499.849 230.864)" fill="white"/>
<rect width="3.99077" height="3.99077" rx="1.14194" transform="matrix(-1 0 0 1 483.885 230.864)" fill="white"/>
<rect width="3.99077" height="3.99077" rx="1.14194" transform="matrix(-1 0 0 1 467.923 230.864)" fill="white"/>
<rect width="3.99077" height="3.99077" rx="1.14194" transform="matrix(-1 0 0 1 451.96 230.864)" fill="white"/>
<rect width="3.99077" height="3.99077" rx="1.14194" transform="matrix(-1 0 0 1 435.996 230.864)" fill="white"/>
<rect width="3.99077" height="3.99077" rx="1.14194" transform="matrix(-1 0 0 1 420.033 230.864)" fill="white"/>
<rect width="3.99077" height="3.99077" rx="1.14194" transform="matrix(-1 0 0 1 404.07 230.864)" fill="white"/>
<rect width="3.99077" height="3.99077" rx="1.14194" transform="matrix(-1 0 0 1 388.107 230.864)" fill="white"/>
<rect width="3.99077" height="3.99077" rx="1.14194" transform="matrix(-1 0 0 1 372.144 230.864)" fill="white"/>
<rect width="3.99077" height="3.99077" rx="1.14194" transform="matrix(-1 0 0 1 515.812 246.827)" fill="white"/>
<rect width="3.99077" height="3.99077" rx="1.14194" transform="matrix(-1 0 0 1 499.849 246.827)" fill="white"/>
<rect width="3.99077" height="3.99077" rx="1.14194" transform="matrix(-1 0 0 1 483.885 246.827)" fill="white"/>
<rect width="3.99077" height="3.99077" rx="1.14194" transform="matrix(-1 0 0 1 467.923 246.827)" fill="white"/>
<rect width="3.99077" height="3.99077" rx="1.14194" transform="matrix(-1 0 0 1 451.96 246.827)" fill="white"/>
<rect width="3.99077" height="3.99077" rx="1.14194" transform="matrix(-1 0 0 1 435.996 246.827)" fill="white"/>
<rect width="3.99077" height="3.99077" rx="1.14194" transform="matrix(-1 0 0 1 420.033 246.827)" fill="white"/>
<rect width="3.99077" height="3.99077" rx="1.14194" transform="matrix(-1 0 0 1 404.07 246.827)" fill="white"/>
<rect width="3.99077" height="3.99077" rx="1.14194" transform="matrix(-1 0 0 1 388.107 246.827)" fill="white"/>
<rect width="3.99077" height="3.99077" rx="1.14194" transform="matrix(-1 0 0 1 372.144 246.827)" fill="white"/>
<rect width="3.99077" height="3.99077" rx="1.14194" transform="matrix(-1 0 0 1 515.812 262.79)" fill="white"/>
<rect width="3.99077" height="3.99077" rx="1.14194" transform="matrix(-1 0 0 1 515.812 278.186)" fill="white"/>
<rect width="3.99077" height="3.99077" rx="1.14194" transform="matrix(-1 0 0 1 515.812 293.581)" fill="white"/>
<rect width="3.99077" height="3.99077" rx="1.14194" transform="matrix(-1 0 0 1 515.812 308.978)" fill="white"/>
<rect width="3.99077" height="3.99077" rx="1.14194" transform="matrix(-1 0 0 1 499.849 262.79)" fill="white"/>
<rect width="3.99077" height="3.99077" rx="1.14194" transform="matrix(-1 0 0 1 499.849 278.186)" fill="white"/>
<rect width="3.99077" height="3.99077" rx="1.14194" transform="matrix(-1 0 0 1 499.849 293.581)" fill="white"/>
<rect width="3.99077" height="3.99077" rx="1.14194" transform="matrix(-1 0 0 1 499.849 308.978)" fill="white"/>
<rect width="3.99077" height="3.99077" rx="1.14194" transform="matrix(-1 0 0 1 483.885 262.79)" fill="white"/>
<rect width="3.99077" height="3.99077" rx="1.14194" transform="matrix(-1 0 0 1 483.885 278.186)" fill="white"/>
<rect width="3.99077" height="3.99077" rx="1.14194" transform="matrix(-1 0 0 1 483.885 293.581)" fill="white"/>
<rect width="3.99077" height="3.99077" rx="1.14194" transform="matrix(-1 0 0 1 483.885 308.978)" fill="white"/>
<rect width="3.99077" height="3.99077" rx="1.14194" transform="matrix(-1 0 0 1 467.923 262.79)" fill="white"/>
<rect width="3.99077" height="3.99077" rx="1.14194" transform="matrix(-1 0 0 1 467.923 278.186)" fill="white"/>
<rect width="3.99077" height="3.99077" rx="1.14194" transform="matrix(-1 0 0 1 467.923 293.581)" fill="white"/>
<rect width="3.99077" height="3.99077" rx="1.14194" transform="matrix(-1 0 0 1 467.923 308.978)" fill="white"/>
<rect width="3.99077" height="3.99077" rx="1.14194" transform="matrix(-1 0 0 1 451.96 262.79)" fill="white"/>
<rect width="3.99077" height="3.99077" rx="1.14194" transform="matrix(-1 0 0 1 451.96 278.186)" fill="white"/>
<rect width="3.99077" height="3.99077" rx="1.14194" transform="matrix(-1 0 0 1 451.96 293.581)" fill="white"/>
<rect width="3.99077" height="3.99077" rx="1.14194" transform="matrix(-1 0 0 1 451.96 308.978)" fill="white"/>
<rect width="3.99077" height="3.99077" rx="1.14194" transform="matrix(-1 0 0 1 435.996 262.79)" fill="white"/>
<rect width="3.99077" height="3.99077" rx="1.14194" transform="matrix(-1 0 0 1 435.996 278.186)" fill="white"/>
<rect width="3.99077" height="3.99077" rx="1.14194" transform="matrix(-1 0 0 1 435.996 293.581)" fill="white"/>
<rect width="3.99077" height="3.99077" rx="1.14194" transform="matrix(-1 0 0 1 435.996 308.978)" fill="white"/>
<rect width="3.99077" height="3.99077" rx="1.14194" transform="matrix(-1 0 0 1 420.033 262.79)" fill="white"/>
<rect width="3.99077" height="3.99077" rx="1.14194" transform="matrix(-1 0 0 1 420.033 278.186)" fill="white"/>
<rect width="3.99077" height="3.99077" rx="1.14194" transform="matrix(-1 0 0 1 420.033 293.581)" fill="white"/>
<rect width="3.99077" height="3.99077" rx="1.14194" transform="matrix(-1 0 0 1 420.033 308.978)" fill="white"/>
<rect width="3.99077" height="3.99077" rx="1.14194" transform="matrix(-1 0 0 1 404.07 262.79)" fill="white"/>
<rect width="3.99077" height="3.99077" rx="1.14194" transform="matrix(-1 0 0 1 404.07 278.186)" fill="white"/>
<rect width="3.99077" height="3.99077" rx="1.14194" transform="matrix(-1 0 0 1 404.07 293.581)" fill="white"/>
<rect width="3.99077" height="3.99077" rx="1.14194" transform="matrix(-1 0 0 1 404.07 308.978)" fill="white"/>
<rect width="3.99077" height="3.99077" rx="1.14194" transform="matrix(-1 0 0 1 388.107 262.79)" fill="white"/>
<rect width="3.99077" height="3.99077" rx="1.14194" transform="matrix(-1 0 0 1 388.107 278.186)" fill="white"/>
<rect width="3.99077" height="3.99077" rx="1.14194" transform="matrix(-1 0 0 1 388.107 293.581)" fill="white"/>
<rect width="3.99077" height="3.99077" rx="1.14194" transform="matrix(-1 0 0 1 388.107 308.978)" fill="white"/>
<rect width="3.99077" height="3.99077" rx="1.14194" transform="matrix(-1 0 0 1 372.144 262.79)" fill="white"/>
<rect width="3.99077" height="3.99077" rx="1.14194" transform="matrix(-1 0 0 1 372.144 278.186)" fill="white"/>
<rect width="3.99077" height="3.99077" rx="1.14194" transform="matrix(-1 0 0 1 372.144 293.581)" fill="white"/>
<rect width="3.99077" height="3.99077" rx="1.14194" transform="matrix(-1 0 0 1 372.144 308.978)" fill="white"/>
</g>
<g clip-path="url(#clip0_2217_350)">
<path opacity="0.1" d="M181.391 355.055C205.471 355.055 224.992 351.919 224.992 348.052C224.992 344.184 205.471 341.049 181.391 341.049C157.311 341.049 137.79 344.184 137.79 348.052C137.79 351.919 157.311 355.055 181.391 355.055Z" fill="#6C63FF"/>
<path opacity="0.1" d="M418.402 355.252C448.45 355.252 472.81 352.117 472.81 348.249C472.81 344.381 448.45 341.246 418.402 341.246C388.353 341.246 363.994 344.381 363.994 348.249C363.994 352.117 388.353 355.252 418.402 355.252Z" fill="#6C63FF"/>
<path opacity="0.1" d="M23.1929 156.334H68.6066V218.232H26.5176C26.4058 218.868 26.2984 219.508 26.182 220.148H68.6066V270.067C68.5305 270.045 68.4634 270.018 68.3918 269.991C67.1926 269.517 66.0023 269.016 64.812 268.479L64.0513 268.134C62.8581 267.57 61.6648 266.974 60.4716 266.344C60.0554 266.125 59.6393 265.897 59.2276 265.664C52.6032 261.953 46.5853 257.251 41.3826 251.721C41.2304 251.573 41.0872 251.417 40.9351 251.273C40.2102 250.486 39.4987 249.689 38.8096 248.875L38.0489 247.98C37.2345 246.982 36.447 245.958 35.6818 244.919C35.5699 244.767 35.4625 244.615 35.3462 244.472C32.2343 240.157 29.6504 235.485 27.6497 230.556C27.5871 230.408 27.5334 230.247 27.4752 230.108C26.8607 228.527 26.3163 226.931 25.842 225.32C25.6361 224.645 25.4392 223.978 25.2692 223.275C25.2066 223.069 25.1529 222.868 25.1036 222.667C22.562 212.746 22.2622 202.441 22.2622 192.208C22.2622 191.013 22.2622 189.814 22.2622 188.628C22.2622 184.489 22.3114 180.323 22.383 176.161C22.383 175.083 22.4278 174.009 22.4501 172.926C22.5128 170.179 22.6023 167.431 22.7186 164.684C22.7455 163.919 22.7813 163.158 22.8215 162.397C22.8215 161.959 22.8439 161.52 22.8887 161.082C22.9961 159.489 23.0856 157.909 23.1929 156.334Z" fill="#6C63FF"/>
<path opacity="0.1" d="M68.6065 87.4155H43.6959C47.7453 81.0775 52.1697 74.987 56.9455 69.1767C60.646 64.6304 64.5524 60.2005 68.6065 55.9316V87.4155Z" fill="#6C63FF"/>
<path opacity="0.1" d="M68.6066 89.3301V154.419H23.3362C23.3362 154.231 23.3675 154.039 23.3809 153.851C23.4212 153.336 23.4615 152.821 23.5062 152.311C23.5554 151.712 23.6091 151.108 23.6673 150.521C23.7255 149.935 23.7881 149.219 23.8552 148.57C23.9224 147.922 23.985 147.264 24.0611 146.615C24.1372 145.966 24.2043 145.317 24.2848 144.673C24.3654 144.029 24.437 143.375 24.522 142.731C24.5891 142.194 24.6607 141.662 24.7323 141.125C24.8352 140.368 24.9426 139.608 25.0589 138.856C25.0589 138.744 25.0903 138.628 25.1082 138.52C25.9249 133.017 27.0377 127.562 28.4418 122.179C29.9116 116.532 31.7884 110.998 34.0575 105.622C36.4692 99.9985 39.293 94.5604 42.5057 89.3525L68.6066 89.3301Z" fill="#6C63FF"/>
<path opacity="0.1" d="M79.4487 156.329V218.232H176.447V156.329H79.4487ZM79.4487 220.143V273.302C80.0036 273.419 80.554 273.53 81.0999 273.624C81.8427 273.768 82.581 273.897 83.3372 274.009C83.4804 274.032 83.6281 274.054 83.7847 274.067C84.08 274.117 84.3843 274.157 84.6796 274.197C85.4269 274.3 86.1697 274.385 86.917 274.452C87.2705 274.488 87.6285 274.519 87.9864 274.546L88.85 274.613C89.3199 274.649 89.7853 274.676 90.2461 274.689C90.5325 274.689 90.8189 274.716 91.1142 274.725C91.338 274.725 91.5617 274.725 91.7944 274.725C92.0271 274.725 92.3582 274.725 92.6401 274.725C93.0249 274.725 93.4098 274.725 93.7901 274.725H94.3047C94.6895 274.725 95.0743 274.725 95.4547 274.689H95.4815C95.7455 274.689 96.014 274.689 96.2825 274.654C96.357 274.658 96.4317 274.658 96.5062 274.654C96.73 274.654 96.9537 274.654 97.1685 274.622H97.3251L98.8241 274.506C99.3163 274.461 99.813 274.403 100.314 274.349L101.334 274.228C105.485 273.647 109.59 272.774 113.617 271.615C122.665 269.092 131.516 265.561 140.56 262.975C152.252 259.641 165.17 258.003 176.469 262.08V220.143H79.4487ZM176.447 87.4147V5.00439C165.827 4.88933 155.236 6.13142 144.931 8.70048C120.37 14.8711 98.3319 28.2549 79.4487 45.3482V87.4102H84.3172V89.3209H79.4487V154.419H176.447V89.3254H104.306V87.4147H176.447ZM301.035 59.5777C294.959 59.3629 288.918 57.4388 283.454 54.4676C273.006 48.7847 264.661 40.0099 255.335 32.6043C235.96 17.18 211.931 7.87266 187.28 5.56372V87.4147H325.749L326.094 87.0523L301.035 59.5777ZM313.649 57.3403L327.024 72.0173V53.4921C322.545 54.047 318.621 55.367 313.667 57.3224L313.649 57.3403ZM327.024 286.503V220.143H298.525C298.449 219.861 298.373 219.575 298.283 219.288C298.368 219.575 298.44 219.861 298.521 220.143H187.298V268.134C188.354 268.917 189.396 269.74 190.43 270.577C191.544 271.472 192.645 272.416 193.75 273.342L194.864 274.264C195.397 274.712 195.934 275.159 196.475 275.58C197.549 276.451 198.634 277.31 199.728 278.157C200.27 278.605 200.825 279.007 201.375 279.428C210.113 286.109 219.33 292.137 228.953 297.466C231.109 298.659 233.286 299.824 235.481 300.96C236.944 301.708 238.416 302.45 239.893 303.171C242.113 304.254 244.35 305.298 246.605 306.303C267.397 315.637 289.384 322.041 311.936 325.334C316.944 326.074 321.972 326.655 327.02 327.079V286.498H327.467L327.024 286.503ZM187.298 89.3254V154.419H327.042V89.3254H187.298ZM187.298 156.329V218.232H327.042V156.329H187.298ZM337.889 53.4116V74.0757L354.96 55.3446C349.304 54.4318 343.613 53.78 337.889 53.3892V53.4116ZM337.889 156.352V218.232H473.807V156.329L337.889 156.352ZM473.311 291.416L473.79 220.143H337.889V327.79C346.644 328.158 355.412 328.054 364.155 327.477H364.307C368.484 327.215 372.641 326.833 376.778 326.332H376.872C398.946 323.763 420.53 318.003 440.95 309.234M500.016 166.523C499.506 165.319 498.973 164.124 498.432 162.943C497.42 160.706 496.351 158.531 495.25 156.356H484.645V218.232H511.457C511.444 200.709 507.01 182.811 500.029 166.5L500.016 166.523ZM484.645 220.165V281.469C492.198 274.228 498.579 265.946 503.175 256.477C508.701 245.076 511.229 232.73 511.435 220.156L484.645 220.165ZM484.645 138.314V154.423H494.257C491.349 148.878 488.145 143.493 484.659 138.292L484.645 138.314ZM392.467 65.5559C391.76 65.2874 391.053 65.0144 390.341 64.7504C382.837 61.9794 375.17 59.675 367.382 57.8505L341.258 86.5198L340.757 87.0523L341.093 87.4192H434.068C421.119 78.5058 407.159 71.1593 392.48 65.5335L392.467 65.5559ZM436.793 89.3478H339.795L337.889 91.0929V154.419H354.597H354.624H473.825V123.745C463.042 110.704 450.597 99.1319 436.806 89.3254L436.793 89.3478Z" fill="#6C63FF"/>
<path opacity="0.1" d="M68.6066 122.16V154.418H23.3362C23.3362 154.23 23.3675 154.038 23.3809 153.85C23.4212 153.335 23.4615 152.821 23.5062 152.311C23.5554 151.711 23.6091 151.107 23.6673 150.521C23.7255 149.935 23.7881 149.219 23.8552 148.57C23.9224 147.921 23.985 147.263 24.0611 146.614C24.1372 145.965 24.2043 145.317 24.2848 144.672C24.3654 144.028 24.437 143.375 24.522 142.73C24.5891 142.193 24.6607 141.661 24.7323 141.124C24.8352 140.368 24.9426 139.607 25.0589 138.855C25.0589 138.743 25.0903 138.627 25.1082 138.52C25.9249 133.016 27.0377 127.561 28.4418 122.178L68.6066 122.16Z" fill="#6C63FF"/>
<path opacity="0.1" d="M23.1929 156.334H68.6066V218.232H26.5176C26.4058 218.868 26.2984 219.508 26.182 220.148H68.6066V270.067C68.5305 270.045 68.4634 270.018 68.3918 269.991C67.1926 269.517 66.0023 269.016 64.812 268.479L64.0513 268.134C62.8581 267.57 61.6648 266.974 60.4716 266.344C60.0554 266.125 59.6393 265.897 59.2276 265.664C52.6032 261.953 46.5853 257.251 41.3826 251.721C41.2304 251.573 41.0872 251.417 40.9351 251.273C40.2102 250.486 39.4987 249.689 38.8096 248.875L38.0489 247.98C37.2345 246.982 36.447 245.958 35.6818 244.919C35.5699 244.767 35.4625 244.615 35.3462 244.472C32.2343 240.157 29.6504 235.485 27.6497 230.556C27.5871 230.408 27.5334 230.247 27.4752 230.108C26.8607 228.527 26.3163 226.931 25.842 225.32C25.6361 224.645 25.4392 223.978 25.2692 223.275C25.2066 223.069 25.1529 222.868 25.1036 222.667C22.562 212.746 22.2622 202.441 22.2622 192.208C22.2622 191.013 22.2622 189.814 22.2622 188.628C22.2622 184.489 22.3114 180.323 22.383 176.161C22.383 175.083 22.4278 174.009 22.4501 172.926C22.5128 170.179 22.6023 167.431 22.7186 164.684C22.7455 163.919 22.7813 163.158 22.8215 162.397C22.8215 161.959 22.8439 161.52 22.8887 161.082C22.9961 159.489 23.0856 157.909 23.1929 156.334Z" fill="#6C63FF"/>
<path opacity="0.1" d="M113.595 98.6469V154.419H79.4487V98.6469H84.3172V79.7637H104.301V98.6469H113.595Z" fill="#6C63FF"/>
<path opacity="0.1" d="M113.595 156.329H79.4532V218.227H113.595V156.329Z" fill="#6C63FF"/>
<path opacity="0.1" d="M79.4487 220.147H113.595V271.606C109.567 272.764 105.463 273.636 101.312 274.215L100.292 274.34C99.7907 274.399 99.294 274.448 98.8018 274.497C98.3095 274.546 97.7994 274.582 97.3027 274.613H97.1461C96.9313 274.613 96.6987 274.64 96.4883 274.645H96.2601C95.9916 274.645 95.7232 274.672 95.4547 274.68C95.0743 274.703 94.694 274.707 94.3047 274.712C94.1391 274.712 93.9825 274.712 93.817 274.712C93.4321 274.712 93.0518 274.712 92.667 274.712H91.8212C91.593 274.712 91.3738 274.712 91.1366 274.712L90.273 274.68C89.8255 274.68 89.3423 274.631 88.8769 274.6L88.0178 274.537L86.9483 274.439C86.1966 274.372 85.4493 274.287 84.711 274.184L83.816 274.058L83.3686 273.996C82.6213 273.88 81.883 273.754 81.1312 273.611C80.5808 273.517 80.0349 273.401 79.48 273.289L79.4487 220.147Z" fill="#6C63FF"/>
<path opacity="0.1" d="M327.042 92.0596H298.887V154.414H327.042V92.0596Z" fill="#6C63FF"/>
<path opacity="0.1" d="M327.047 156.329V218.232H187.298V191.531H261.734V207.282H298.887V156.329H327.047Z" fill="#6C63FF"/>
<path opacity="0.1" d="M327.49 286.516H327.042V327.124C322.001 326.697 316.974 326.117 311.963 325.383C289.399 322.08 267.404 315.662 246.605 306.312C240.6 303.609 234.717 300.659 228.957 297.461C219.335 292.131 210.116 286.102 201.375 279.424C199.18 277.741 197.012 276.02 194.873 274.26C193.392 273.038 191.92 271.786 190.43 270.568C189.396 269.732 188.354 268.908 187.298 268.121V220.148H298.516C298.44 219.861 298.364 219.575 298.283 219.293C298.368 219.575 298.449 219.861 298.525 220.148H327.042V286.489C327.194 286.494 327.342 286.507 327.49 286.516Z" fill="#6C63FF"/>
<path opacity="0.1" d="M400.472 87.4156H382.126V81.7148H390.35V64.7334C391.063 64.9929 391.773 65.2599 392.48 65.5344V81.7148H400.472V87.4156Z" fill="#6C63FF"/>
<path opacity="0.1" d="M444.673 154.419H354.606C354.606 154.419 354.606 154.419 354.638 154.441L354.597 154.419H337.889V92.0641H342.623V138.153H364.258V110.858H382.13V89.3301H400.476V110.876H418.348V138.171H444.673V154.419Z" fill="#6C63FF"/>
<path opacity="0.1" d="M337.889 156.329V218.232H444.673V156.329H337.889ZM473.66 291.098L473.807 242.1H444.673V220.174H337.889V327.79C346.644 328.158 355.412 328.053 364.155 327.477H364.307C368.484 327.214 372.641 326.833 376.778 326.331H376.872C398.946 323.762 420.53 318.003 440.95 309.234" fill="#6C63FF"/>
<path opacity="0.1" d="M486.542 220.147H511.453C511.234 232.717 508.71 245.063 503.188 256.464C498.593 265.937 492.207 274.22 484.663 281.455V242.078H486.542V220.147Z" fill="#6C63FF"/>
<path opacity="0.1" d="M511.466 218.232H486.542V166.5H500.029C507.01 182.81 511.444 200.709 511.466 218.232Z" fill="#6C63FF"/>
<path opacity="0.1" d="M327.047 109.395H311.962V128.944H327.047V109.395Z" fill="#6C63FF"/>
<path opacity="0.1" d="M327.047 149.917H311.962V154.419H327.047V149.917Z" fill="#6C63FF"/>
<path opacity="0.1" d="M327.047 156.329H311.962V169.462H327.047V156.329Z" fill="#6C63FF"/>
<path opacity="0.1" d="M327.047 190.439H311.962V209.989H327.047V190.439Z" fill="#6C63FF"/>
<path opacity="0.1" d="M327.047 230.963H311.962V250.513H327.047V230.963Z" fill="#6C63FF"/>
<path opacity="0.1" d="M327.042 286.489C327.194 286.489 327.342 286.489 327.49 286.516H327.042V291.058H311.962V271.485H327.042V286.489Z" fill="#6C63FF"/>
<path opacity="0.1" d="M327.042 312V327.102C322.001 326.675 316.974 326.095 311.962 325.361V312H327.042Z" fill="#6C63FF"/>
<path opacity="0.1" d="M251.943 216.796H187.298V218.232H251.943V216.796Z" fill="#6C63FF"/>
<path opacity="0.1" d="M251.943 220.143H187.298V225.646H251.943V220.143Z" fill="#6C63FF"/>
<path opacity="0.1" d="M251.943 243.688H187.298V252.539H251.943V243.688Z" fill="#6C63FF"/>
<path opacity="0.1" d="M251.939 270.582V279.433H201.375C199.179 277.756 197.011 276.035 194.869 274.269C193.388 273.048 191.92 271.795 190.425 270.582H251.939Z" fill="#6C63FF"/>
<path opacity="0.1" d="M251.939 297.47V306.312H246.601C240.602 303.607 234.72 300.655 228.957 297.457L251.939 297.47Z" fill="#6C63FF"/>
<path opacity="0.1" d="M376.886 162.33H364.16V175.056H376.886V162.33Z" fill="#6C63FF"/>
<path opacity="0.1" d="M101.343 103.036H88.6173V115.762H101.343V103.036Z" fill="#6C63FF"/>
<path opacity="0.1" d="M101.343 132.596H88.6173V145.322H101.343V132.596Z" fill="#6C63FF"/>
<path opacity="0.1" d="M101.343 162.155H88.6173V174.881H101.343V162.155Z" fill="#6C63FF"/>
<path opacity="0.1" d="M101.343 191.711H88.6173V204.437H101.343V191.711Z" fill="#6C63FF"/>
<path opacity="0.1" d="M101.343 221.271H88.6173V233.997H101.343V221.271Z" fill="#6C63FF"/>
<path opacity="0.1" d="M101.343 250.83H88.6173V263.556H101.343V250.83Z" fill="#6C63FF"/>
<path opacity="0.1" d="M425.467 162.33H412.741V175.056H425.467V162.33Z" fill="#6C63FF"/>
<path opacity="0.1" d="M376.886 193.72H364.16V206.446H376.886V193.72Z" fill="#6C63FF"/>
<path opacity="0.1" d="M425.467 193.72H412.741V206.446H425.467V193.72Z" fill="#6C63FF"/>
<path opacity="0.1" d="M376.886 225.105H364.16V237.831H376.886V225.105Z" fill="#6C63FF"/>
<path opacity="0.1" d="M425.467 225.105H412.741V237.831H425.467V225.105Z" fill="#6C63FF"/>
<path opacity="0.1" d="M376.886 256.495H364.16V269.221H376.886V256.495Z" fill="#6C63FF"/>
<path opacity="0.1" d="M425.467 256.495H412.741V269.221H425.467V256.495Z" fill="#6C63FF"/>
<path opacity="0.1" d="M376.886 287.886H364.16V300.612H376.886V287.886Z" fill="#6C63FF"/>
<path opacity="0.1" d="M425.467 287.886H412.741V300.612H425.467V287.886Z" fill="#6C63FF"/>
<path opacity="0.1" d="M364.16 327.477V319.271H376.881V326.309L364.16 327.477Z" fill="#6C63FF"/>
<path opacity="0.1" d="M25.0544 138.512V145.792H68.6066V138.512H25.0544ZM29.3949 145.336H25.842V138.959H29.4217L29.3949 145.336ZM33.7309 145.336H30.1511V138.959H33.7309V145.336ZM38.0579 145.336H34.4781V138.959H38.0579V145.336ZM42.3939 145.336H38.8186V138.959H42.3983L42.3939 145.336ZM46.7254 145.336H43.1456V138.959H46.7254V145.336ZM51.0613 145.336H47.4816V138.959H51.0613V145.336ZM55.3973 145.336H51.8176V138.959H55.3973V145.336ZM59.7288 145.336H56.149V138.959H59.7288V145.336ZM64.0603 145.336H60.4805V138.959H64.0603V145.336ZM68.3918 145.336H64.812V138.959H68.3918V145.336Z" fill="#6C63FF"/>
<path opacity="0.1" d="M25.0544 159.694V166.975H68.6066V159.694H25.0544ZM29.3949 166.514H25.842V160.155H29.4217L29.3949 166.514ZM33.7309 166.514H30.1511V160.155H33.7309V166.514ZM38.0579 166.514H34.4781V160.155H38.0579V166.514ZM42.3939 166.514H38.8186V160.155H42.3983L42.3939 166.514ZM46.7254 166.514H43.1456V160.155H46.7254V166.514ZM51.0613 166.514H47.4816V160.155H51.0613V166.514ZM55.3973 166.514H51.8176V160.155H55.3973V166.514ZM59.7288 166.514H56.149V160.155H59.7288V166.514ZM64.0603 166.514H60.4805V160.155H64.0603V166.514ZM68.3918 166.514H64.812V160.155H68.3918V166.514Z" fill="#6C63FF"/>
<path opacity="0.1" d="M25.0544 180.887V188.18H68.6066V180.887H25.0544ZM29.3949 187.706H25.842V181.343H29.4217L29.3949 187.706ZM33.7309 187.706H30.1511V181.343H33.7309V187.706ZM38.0579 187.706H34.4781V181.343H38.0579V187.706ZM42.3939 187.706H38.8186V181.343H42.3983L42.3939 187.706ZM46.7254 187.706H43.1456V181.343H46.7254V187.706ZM51.0613 187.706H47.4816V181.343H51.0613V187.706ZM55.3973 187.706H51.8176V181.343H55.3973V187.706ZM59.7288 187.706H56.149V181.343H59.7288V187.706ZM64.0603 187.706H60.4805V181.343H64.0603V187.706ZM68.3918 187.706H64.812V181.343H68.3918V187.706Z" fill="#6C63FF"/>
<path opacity="0.1" d="M25.0544 202.079V209.35H68.6066V202.079H25.0544ZM29.3949 208.899H25.842V202.531H29.4217L29.3949 208.899ZM33.7309 208.899H30.1511V202.531H33.7309V208.899ZM38.0579 208.899H34.4781V202.531H38.0579V208.899ZM42.3939 208.899H38.8186V202.531H42.3983L42.3939 208.899ZM46.7254 208.899H43.1456V202.531H46.7254V208.899ZM51.0613 208.899H47.4816V202.531H51.0613V208.899ZM55.3973 208.899H51.8176V202.531H55.3973V208.899ZM59.7288 208.899H56.149V202.531H59.7288V208.899ZM64.0603 208.899H60.4805V202.531H64.0603V208.899ZM68.3918 208.899H64.812V202.531H68.3918V208.899Z" fill="#6C63FF"/>
<path opacity="0.1" d="M25.2424 223.267C25.4169 223.951 25.6138 224.636 25.8197 225.312V223.723H29.3994V230.086H27.4842C27.5424 230.234 27.6006 230.395 27.6588 230.534H68.6066V223.267H25.2424ZM33.7443 230.086H30.1646V223.723H33.7443V230.086ZM38.0714 230.086H34.4916V223.723H38.0714V230.086ZM42.4073 230.086H38.8186V223.723H42.3984L42.4073 230.086ZM46.7388 230.086H43.1591V223.723H46.7388V230.086ZM51.0748 230.086H47.4951V223.723H51.0748V230.086ZM55.4108 230.086H51.831V223.723H55.4108V230.086ZM59.7423 230.086H56.1625V223.723H59.7423V230.086ZM64.0738 230.086H60.494V223.723H64.0738V230.086ZM68.4053 230.086H64.8255V223.723H68.4053V230.086Z" fill="#6C63FF"/>
<path opacity="0.1" d="M35.3551 244.458C35.467 244.601 35.5744 244.762 35.6907 244.905H38.0578V247.962C38.3129 248.266 38.5635 248.57 38.823 248.857V244.888H42.4027V251.273H40.9529C41.0961 251.421 41.2348 251.577 41.4004 251.72H68.6199V244.458H35.3551ZM46.7253 251.273H43.1455V244.914H46.7253V251.273ZM51.0613 251.273H47.4815V244.914H51.0613V251.273ZM55.3972 251.273H51.8175V244.914H55.3972V251.273ZM59.7287 251.273H56.149V244.914H59.7287V251.273ZM64.0602 251.273H60.4805V244.914H64.0602V251.273ZM68.3917 251.273H64.812V244.914H68.3917V251.273Z" fill="#6C63FF"/>
<path opacity="0.1" d="M59.2455 265.646C59.6527 265.878 60.0688 266.093 60.4894 266.326V266.102H64.0692V268.116L64.8299 268.469V266.102H68.4096V269.973C68.4783 270.007 68.5503 270.034 68.6244 270.053V265.646H59.2455Z" fill="#6C63FF"/>
<path opacity="0.1" d="M298.283 219.288C298.368 219.575 298.44 219.861 298.521 220.143C298.449 219.861 298.373 219.575 298.283 219.288ZM84.3351 87.4014V89.3121H104.324V87.4014H84.3351ZM298.283 219.288C298.368 219.575 298.44 219.861 298.521 220.143C298.449 219.861 298.373 219.575 298.283 219.288ZM298.283 219.288C298.368 219.575 298.44 219.861 298.521 220.143C298.449 219.861 298.373 219.575 298.283 219.288Z" fill="#6C63FF"/>
<path d="M223.552 174.89C223.552 174.89 221.789 174.644 221.789 172.075C221.789 169.507 220.527 164.71 220.527 164.71C220.527 164.688 219.435 156.356 217.927 155.031C216.419 153.707 214.481 145.93 214.481 145.93C214.481 145.93 214.15 141.71 213.475 140.802C212.799 139.894 211.886 137.67 210.539 134.497C209.192 131.325 203.577 129.127 203.577 129.127C203.577 129.127 193.424 123.239 190.546 121.319C190.285 121.161 190.04 120.977 189.817 120.769C189.316 120.111 187.132 120.098 187.132 120.098C186.904 118.657 186.685 117.001 186.613 115.502C186.613 115.341 186.613 115.18 186.591 115.019C189.799 113.122 192.216 110.132 193.397 106.597C193.45 106.427 193.495 106.248 193.544 106.078C193.737 106.015 193.914 105.912 194.064 105.777C194.214 105.641 194.334 105.476 194.417 105.291C194.676 104.714 194.681 104.038 195.003 103.501C195.379 102.865 196.095 102.525 196.659 102.047C198.082 100.838 198.449 98.8025 198.382 96.9499C198.337 95.4509 198.095 93.9385 198.189 92.4484L198.216 92.0725C198.243 91.8488 198.274 91.6251 198.314 91.4103C198.534 90.3006 199.012 89.2535 199.281 88.1527C199.549 87.0519 199.576 85.8125 198.95 84.8638C198.032 83.4722 196.122 83.1948 194.444 83.0516C192.542 82.8905 190.842 83.1008 189.625 81.5212C189.055 80.6957 188.414 79.9216 187.709 79.2078C187.459 78.9751 185.025 77.4895 185.025 77.3911C182.649 76.2907 179.956 76.0842 177.44 76.8094C176.178 77.1763 174.988 77.7759 173.708 78.0757C170.947 78.729 167.77 78.022 165.425 79.6016C164.119 80.4965 163.336 81.9195 162.602 83.3066C162.005 84.4492 161.4 85.5902 160.785 86.7298C159.796 88.6047 158.789 90.5109 158.373 92.5871C158.286 93.0389 158.232 93.4966 158.212 93.9564V93.9788C158.212 94.1443 158.212 94.3099 158.212 94.4754V94.6858C158.212 94.8424 158.212 94.9945 158.239 95.1332C158.266 95.2719 158.261 95.3167 158.275 95.4107C158.288 95.5046 158.311 95.7149 158.338 95.8581C158.364 96.0013 158.418 96.2519 158.472 96.4488C158.494 96.5338 158.525 96.6143 158.552 96.6949C158.597 96.847 158.651 96.9947 158.709 97.1424C158.74 97.2184 158.772 97.299 158.807 97.375C158.874 97.5317 158.955 97.6838 159.036 97.8225C159.071 97.8852 159.098 97.9433 159.134 98.0015C159.259 98.2096 159.396 98.4098 159.546 98.6011C160.503 99.7959 161.913 100.557 162.955 101.675C162.955 101.72 162.955 101.765 162.955 101.805C162.955 101.93 162.955 102.051 162.955 102.176C163.011 104.671 163.675 107.115 164.89 109.295C166.105 111.474 167.834 113.324 169.927 114.683C169.927 114.853 169.949 115.028 169.958 115.198C170.046 116.526 170.029 117.859 169.909 119.185C169.727 118.97 169.499 118.799 169.242 118.685C168.985 118.57 168.705 118.514 168.423 118.522C168.231 118.513 168.039 118.53 167.851 118.572L167.81 118.54V118.581C166.826 118.822 165.613 119.847 164.454 122.76C164.454 122.76 160.928 126.733 158.244 126.568C155.559 126.402 148.762 130.703 148.762 130.703C148.762 130.703 142.13 135.007 140.707 139.392C139.912 141.879 138.958 144.312 137.852 146.677L129.655 163.569L128.142 176.971C128.142 176.971 128.979 182.931 128.814 183.839C128.648 184.748 132.255 192.941 132.255 192.941C132.255 192.941 144.171 213.878 149.039 214.952L149.388 214.706C149.596 214.815 149.817 214.897 150.046 214.952L151.048 214.245C151.108 215.033 151.083 215.825 150.972 216.608C150.301 218.675 151.223 232.166 152.395 234.811C153.568 237.455 153.151 272.129 153.151 272.129L152.986 275.19C152.986 275.19 152.986 275.289 153.026 275.459L152.986 276.184L153.107 276.246C153.232 277.217 153.191 278.202 152.986 279.159C152.565 280.502 152.395 284.296 152.395 284.296C152.395 284.296 149.044 305.721 150.632 310.026C152.221 314.33 153.572 319.047 153.572 319.047C153.572 319.047 155.25 324.416 153.653 325.334C152.055 326.251 147.513 327.79 148.448 330.027C149.299 332.095 152.525 337.634 153.004 338.444L152.963 338.869L152.306 345.998C152.412 346.939 152.667 347.857 153.062 348.718C153.782 350.271 155.183 351.882 157.845 351.707C158.293 351.676 158.812 351.622 159.313 351.555C164.186 350.902 170.186 348.727 170.186 348.727C169.875 348.529 169.589 348.293 169.336 348.025C169.097 347.793 168.907 347.514 168.779 347.207C168.65 346.899 168.586 346.568 168.589 346.235C168.661 344.937 166.231 338.753 165.627 337.232C165.533 337.012 165.484 336.887 165.484 336.887C165.484 336.887 171.023 331.097 170.101 325.964C170.101 325.964 163.971 322.385 165.989 320.42C168.007 318.456 171.614 312.813 171.614 312.813C171.614 312.813 171.779 291.715 171.614 288.565C171.441 286.379 171.545 284.179 171.923 282.019C171.99 281.692 172.07 281.374 172.155 281.061C174.946 281.478 177.764 281.691 180.586 281.701C181.615 281.701 182.662 281.701 183.718 281.638C183.718 281.937 183.731 282.259 183.758 282.605C183.991 287.831 184.425 296.995 184.778 300.401C185.28 305.282 188.049 318.438 188.049 318.438C188.049 318.438 182.765 321.83 188.971 330.189C188.971 330.189 188.971 333.218 188.56 333.656C188.12 335.09 187.766 336.548 187.499 338.024C187.24 339.599 187.132 341.192 187.553 342.02C188.56 343.997 194.6 343.836 194.6 343.836L194.748 343.81C195.889 343.692 197.041 343.801 198.139 344.132C199.236 344.464 200.257 345.009 201.142 345.738C203.438 347.582 212.15 346.772 216.866 346.186C218.714 345.953 219.95 345.738 219.95 345.738C220.009 345.529 220.031 345.311 220.012 345.094C219.963 343.935 219.055 341.393 212.897 339.125C212.897 339.125 207.107 335.232 207.188 331.84H207.067H206.396C206.883 331.813 207.197 331.84 207.197 331.84C207.197 331.84 204.928 323.562 205.854 322.89C206.781 322.219 204.006 313.046 204.006 313.046C204.006 313.046 202.418 297.653 202.333 296.575C202.336 295.649 202.476 294.73 202.749 293.845L202.333 285.406C202.333 285.406 202.252 282.6 202.333 281.687C202.319 280.895 202.255 280.104 202.14 279.32C202.1 279.007 202.06 278.68 202.015 278.358C204.185 277.808 205.595 277.298 205.595 277.298L205.344 247.921C207.188 244.342 207.528 236.489 207.519 230.918C207.519 227.338 207.358 224.689 207.358 224.689L209.877 220.577C209.877 220.577 210.459 215.654 209.537 214.576C209.13 214.088 209.313 213.583 209.649 213.167C209.823 213.028 210.007 212.903 210.199 212.791C210.199 212.791 210.172 212.75 210.141 212.692C210.317 212.545 210.504 212.412 210.7 212.294C210.7 212.294 209.805 210.907 210.606 210.321C211.358 210.831 212.029 211.216 212.539 211.529C212.504 211.855 212.468 212.043 212.468 212.043L212.683 211.596C213.175 211.873 213.475 212.043 213.475 212.043C213.475 212.043 217.421 204.181 217.336 203.022C217.251 201.863 220.021 196.982 220.021 196.982C220.021 196.982 220.357 194.418 221.869 193.344C223.382 192.27 223.042 184.488 223.042 184.488C223.042 184.488 223.462 180.434 224.469 178.779C225.476 177.123 223.552 174.89 223.552 174.89ZM148.037 171.44L148.113 173.315C147.665 172.595 147.343 172.075 147.343 172.075L148.037 171.44Z" fill="url(#paint0_linear_2217_350)"/>
<path d="M213.689 208.647L212.723 212.764C212.723 212.764 204.982 208.813 203.585 203.792C202.189 198.771 205.921 196.865 205.921 196.865L213.134 199.921L213.689 208.647Z" fill="white"/>
<path opacity="0.1" d="M213.689 208.647L212.723 212.764C212.723 212.764 204.982 208.813 203.585 203.792C202.189 198.771 205.921 196.865 205.921 196.865L213.134 199.921L213.689 208.647Z" fill="black"/>
<path d="M170.245 348.754C170.245 348.754 163.085 351.386 158.163 351.717C155.55 351.891 154.176 350.289 153.469 348.745C153.083 347.887 152.834 346.974 152.731 346.038L153.371 338.946L153.711 335.169L164.168 332.453L165.649 336.982L165.788 337.326C166.383 338.839 168.768 344.991 168.696 346.275C168.693 346.604 168.757 346.93 168.883 347.234C169.009 347.538 169.195 347.813 169.43 348.043C169.67 348.314 169.944 348.553 170.245 348.754Z" fill="white"/>
<path d="M219.149 345.148C219.166 345.363 219.145 345.58 219.086 345.788C219.086 345.788 203.773 348.343 200.641 345.788C199.758 345.041 198.729 344.488 197.619 344.163C196.509 343.837 195.344 343.748 194.198 343.899C194.198 343.899 188.273 344.061 187.284 342.11C186.873 341.291 186.98 339.702 187.235 338.136C187.495 336.669 187.842 335.218 188.273 333.791L188.51 333.603L189.92 332.471L206.423 331.983H206.548C206.467 335.357 212.15 339.228 212.15 339.228C218.186 341.465 219.077 343.993 219.149 345.148Z" fill="white"/>
<path opacity="0.1" d="M219.148 345.148C219.164 345.363 219.141 345.58 219.081 345.787C219.081 345.787 203.773 348.342 200.641 345.787C199.759 345.042 198.73 344.488 197.621 344.163C196.512 343.838 195.348 343.748 194.202 343.899C194.202 343.899 188.273 344.06 187.289 342.109C186.877 341.286 186.98 339.702 187.235 338.136C189.517 338.364 193.119 338.932 194.533 340.288C196.672 342.351 200.297 344.409 202.521 344.57C204.261 344.682 214.674 345.013 219.148 345.148Z" fill="black"/>
<path opacity="0.1" d="M170.245 348.755C170.245 348.755 163.085 351.386 158.163 351.717C155.55 351.891 154.176 350.289 153.474 348.741C155.295 349.354 157.823 349.998 159.152 349.408C160.727 348.71 166.311 348.258 169.444 348.065C169.682 348.326 169.951 348.558 170.245 348.755Z" fill="black"/>
<path d="M180.868 136.721C174.961 134.426 167.363 126.841 169.26 123.297C169.682 122.403 169.932 121.438 169.999 120.451C170.121 119.112 170.139 117.766 170.052 116.424C169.919 114.226 169.655 112.039 169.26 109.873C169.26 109.873 187.7 110.289 186.626 113.005C186.313 113.802 186.264 115.184 186.349 116.733C186.434 118.281 186.658 120.031 186.89 121.512C187.213 123.543 187.535 125.091 187.535 125.091C187.535 125.091 186.407 126.671 185.745 126.756C185.083 126.841 189.343 139.992 180.868 136.721Z" fill="#CF6F80"/>
<path opacity="0.1" d="M165.774 337.326L165.636 337.478C160.123 330.811 153.456 339.12 153.456 339.12L153.357 338.946L153.697 335.169L164.155 332.453L165.636 336.982L165.774 337.326Z" fill="black"/>
<path opacity="0.1" d="M206.552 332.453C206.552 332.453 202.525 332.368 200.377 334.265C198.229 336.162 187.848 334.676 188.296 334.265C188.428 334.061 188.508 333.827 188.528 333.585L189.938 332.453L206.44 331.965C206.503 332.265 206.552 332.453 206.552 332.453Z" fill="black"/>
<path d="M172.634 280.094C172.334 280.836 172.106 281.605 171.954 282.39C171.581 284.54 171.477 286.729 171.645 288.905C171.811 292.037 171.645 313.028 171.645 313.028C171.645 313.028 168.106 318.626 166.132 320.599C164.159 322.573 170.16 326.117 170.16 326.117C171.055 331.218 165.631 336.981 165.631 336.981C160.118 330.314 153.451 338.628 153.451 338.628C153.451 338.628 149.827 332.363 148.923 330.126C148.019 327.888 152.462 326.34 154.024 325.432C155.586 324.524 153.948 319.167 153.948 319.167C153.948 319.167 152.628 314.473 151.062 310.191C149.495 305.909 152.789 284.591 152.789 284.591C152.789 284.591 152.959 280.806 153.366 279.486C153.572 278.533 153.612 277.553 153.487 276.586C153.46 276.26 153.429 275.987 153.406 275.803C153.384 275.62 153.366 275.535 153.366 275.535L153.429 275.427L155.666 271.257C155.666 271.257 173.708 277.468 172.634 280.094Z" fill="#6C63FF"/>
<path d="M206.552 331.961C206.552 331.961 202.525 331.876 200.377 333.751C198.229 335.626 187.848 334.163 188.296 333.751C188.743 333.339 188.707 330.292 188.707 330.292C182.617 321.978 187.812 318.604 187.812 318.604C187.812 318.604 185.092 305.516 184.599 300.661C184.255 297.269 183.83 288.154 183.602 282.95C183.503 280.713 183.445 279.173 183.445 279.173L188.421 278.171L189.061 278.041L201.062 275.634C201.062 275.634 201.393 277.871 201.617 279.701C201.728 280.483 201.791 281.27 201.805 282.059C201.724 282.954 201.805 285.756 201.805 285.756L202.212 294.155C201.946 295.036 201.809 295.95 201.805 296.871C201.885 297.94 203.447 313.252 203.447 313.252C203.447 313.252 206.163 322.39 205.237 323.048C204.31 323.705 206.552 331.961 206.552 331.961Z" fill="#6C63FF"/>
<path opacity="0.1" d="M186.626 113.005C186.313 113.802 186.264 115.184 186.349 116.733C183.879 118.22 181.039 118.981 178.157 118.927C175.274 118.873 172.465 118.007 170.052 116.428C169.919 114.229 169.655 112.04 169.26 109.873C169.26 109.873 187.7 110.28 186.626 113.005Z" fill="black"/>
<path d="M193.755 103.117C193.758 104.73 193.504 106.332 193.003 107.865C191.882 111.298 189.583 114.225 186.513 116.128C183.442 118.031 179.798 118.787 176.224 118.263C172.65 117.738 169.377 115.967 166.982 113.263C164.588 110.559 163.227 107.095 163.139 103.484C163.139 103.359 163.139 103.242 163.139 103.117C163.104 101.085 163.474 99.0654 164.228 97.1774C164.982 95.2895 166.104 93.5705 167.529 92.1208C168.954 90.6711 170.654 89.5197 172.529 88.7337C174.404 87.9478 176.416 87.543 178.449 87.543C180.482 87.543 182.494 87.9478 184.369 88.7337C186.244 89.5197 187.943 90.6711 189.369 92.1208C190.794 93.5705 191.916 95.2895 192.67 97.1774C193.424 99.0654 193.794 101.085 193.759 103.117H193.755Z" fill="#CF6F80"/>
<path opacity="0.1" d="M180.868 136.722C174.961 134.427 167.363 126.842 169.26 123.298C169.682 122.404 169.932 121.439 169.999 120.452L178.084 127.097L183.087 131.2L186.89 121.517C187.213 123.549 187.535 125.097 187.535 125.097C187.535 125.097 186.407 126.676 185.745 126.761C185.083 126.846 189.343 139.993 180.868 136.722Z" fill="black"/>
<path d="M201.778 166.088L195.025 279.521L186.219 280.099L163.416 214.325L167.157 136.237L167.945 119.739L178.084 128.067L183.091 132.17L187.007 122.205L194.287 128.55L201.778 166.088Z" fill="#6C63FF"/>
<path opacity="0.1" d="M172.634 280.095C172.334 280.836 172.106 281.605 171.954 282.39C165.546 281.401 159.323 279.457 153.491 276.622L153.371 276.56L153.411 275.839L153.433 275.463L155.671 271.293C155.671 271.293 173.708 277.468 172.634 280.095Z" fill="black"/>
<path opacity="0.1" d="M188.524 282.409C186.886 282.687 185.233 282.875 183.575 282.972C183.476 280.735 183.418 279.196 183.418 279.196L188.394 278.193L188.524 282.409Z" fill="black"/>
<path opacity="0.1" d="M201.59 279.724C198.408 280.552 193.495 281.482 189.097 280.901L189.034 278.064L201.035 275.656C201.035 275.656 201.366 277.871 201.59 279.724Z" fill="black"/>
<path opacity="0.1" d="M189.016 281.42C170.67 284.552 153.867 275.571 153.867 275.571L154.028 272.529C154.028 272.529 154.444 238.033 153.29 235.389C152.135 232.744 151.236 219.334 151.889 217.275C152.543 215.217 149.504 184.35 149.504 184.35L149.012 171.821L130.997 164.523L139.052 147.734C140.139 145.38 141.075 142.959 141.853 140.485C143.253 136.127 149.755 131.844 149.755 131.844C149.755 131.844 156.422 127.567 159.058 127.728C161.693 127.889 165.148 123.942 165.148 123.942C167.698 117.44 170.007 120.385 170.007 120.385C170.007 120.694 170.007 120.385 169.882 121.347C168.987 128.484 184.353 151.036 184.573 151.435L186.036 187.08L187.517 232.189L189.016 281.42Z" fill="black"/>
<path d="M188.524 281.419C170.178 284.552 153.371 275.571 153.371 275.571L153.536 272.528C153.536 272.528 153.952 238.033 152.793 235.388C151.634 232.744 150.74 219.333 151.397 217.275C152.055 215.216 149.012 184.35 149.012 184.35L148.516 171.821L130.492 164.496L138.546 147.707C139.632 145.352 140.567 142.931 141.347 140.458C142.743 136.099 149.249 131.817 149.249 131.817C149.249 131.817 155.917 127.539 158.548 127.7C161.179 127.861 164.638 123.915 164.638 123.915C167.193 117.413 170.008 120.357 170.008 120.357C170.008 120.666 169.739 120.805 169.882 121.319C171.851 128.242 183.861 151.009 184.08 151.407L185.562 187.053L187.043 232.162L188.524 281.419Z" fill="white"/>
<path opacity="0.1" d="M183.579 152.424C181.606 151.6 171.153 139.666 171.153 139.666V136.95C170.773 136.055 168.513 136.601 166.678 137.228L167.466 120.729L168.361 121.472C170.321 128.39 183.351 152.025 183.579 152.424Z" fill="black"/>
<path d="M184.076 151.433C182.098 150.61 171.645 138.676 171.645 138.676V135.96C171.265 135.065 169.005 135.611 167.171 136.237L167.963 119.739L168.857 120.482C170.822 127.4 183.857 151.04 184.076 151.433Z" fill="white"/>
<path opacity="0.1" d="M153.867 210.952C154.113 210.952 166.625 209.637 166.625 209.637C166.625 209.637 174.2 224.533 173.704 228.157C173.207 231.782 172.307 234.99 169.26 234.422C166.213 233.854 152.86 234.869 152.86 234.869L153.867 210.952Z" fill="black"/>
<path d="M153.371 209.963C153.617 209.963 166.128 208.647 166.128 208.647C166.128 208.647 173.699 223.548 173.207 227.168C172.715 230.788 171.806 234.001 168.763 233.433C165.721 232.864 152.364 233.88 152.364 233.88L153.371 209.963Z" fill="white"/>
<path d="M162.799 202.969C162.799 202.969 174.281 209.139 174.527 211.023C174.773 212.907 168.683 210.2 167.367 209.873C166.501 209.665 165.62 209.527 164.732 209.462L155.957 209.699L162.799 202.969Z" fill="#CF6F80"/>
<path opacity="0.1" d="M180.375 153.193C181.043 153.193 181.584 152.652 181.584 151.985C181.584 151.317 181.043 150.776 180.375 150.776C179.708 150.776 179.167 151.317 179.167 151.985C179.167 152.652 179.708 153.193 180.375 153.193Z" fill="black"/>
<path d="M180.375 152.701C181.043 152.701 181.584 152.161 181.584 151.493C181.584 150.826 181.043 150.285 180.375 150.285C179.708 150.285 179.167 150.826 179.167 151.493C179.167 152.161 179.708 152.701 180.375 152.701Z" fill="#3F3D56"/>
<path opacity="0.1" d="M182.599 205.493C183.267 205.493 183.807 204.952 183.807 204.284C183.807 203.617 183.267 203.076 182.599 203.076C181.932 203.076 181.391 203.617 181.391 204.284C181.391 204.952 181.932 205.493 182.599 205.493Z" fill="black"/>
<path d="M182.599 204.996C183.267 204.996 183.807 204.456 183.807 203.788C183.807 203.121 183.267 202.58 182.599 202.58C181.932 202.58 181.391 203.121 181.391 203.788C181.391 204.456 181.932 204.996 182.599 204.996Z" fill="#3F3D56"/>
<path opacity="0.1" d="M181.579 179.343C182.246 179.343 182.787 178.802 182.787 178.135C182.787 177.468 182.246 176.927 181.579 176.927C180.912 176.927 180.371 177.468 180.371 178.135C180.371 178.802 180.912 179.343 181.579 179.343Z" fill="black"/>
<path d="M181.579 178.85C182.246 178.85 182.787 178.309 182.787 177.642C182.787 176.975 182.246 176.434 181.579 176.434C180.912 176.434 180.371 176.975 180.371 177.642C180.371 178.309 180.912 178.85 181.579 178.85Z" fill="#3F3D56"/>
<path d="M209.429 209.211C209.429 209.211 210.253 210.446 209.429 211.023C208.606 211.6 209.51 212.996 209.51 212.996C209.51 212.996 207.456 214.2 208.36 215.283C209.264 216.366 208.691 221.256 208.691 221.256L206.221 225.346C206.221 225.346 206.369 227.982 206.378 231.544C206.378 237.101 206.051 244.914 204.243 248.476L204.494 277.7C204.494 277.7 195.844 280.859 188.604 279.897L187.53 233.002C187.53 233.002 189.096 206.409 189.674 201.308C190.012 198.66 190.149 195.99 190.085 193.321C190.085 193.321 189.839 185.338 189.011 181.633C189.011 181.633 188.117 165.582 188.027 161.139C187.987 159.014 188.099 152.812 188.224 146.914C188.363 140.466 188.519 134.385 188.519 134.385L186.886 121.462C186.886 121.462 188.519 121.296 189.011 121.954C189.232 122.16 189.472 122.344 189.727 122.505C192.546 124.411 202.507 130.273 202.507 130.273C202.507 130.273 208.02 132.465 209.34 135.606C210.66 138.748 211.577 140.976 212.217 141.871C212.857 142.766 213.206 146.972 213.206 146.972C213.206 146.972 215.103 154.713 216.584 156.024C218.066 157.336 219.148 165.676 219.148 165.676L206.06 175.968C206.06 175.968 204.91 193.088 204.664 193.751C204.418 194.413 209.429 209.211 209.429 209.211Z" fill="white"/>
<path d="M209.926 209.211C209.926 209.211 210.745 210.446 209.926 211.024C209.107 211.601 210.002 212.997 210.002 212.997C210.002 212.997 207.962 214.214 208.857 215.297C209.752 216.38 209.188 221.271 209.188 221.271L206.718 225.361C206.718 225.361 206.865 227.996 206.879 231.558C206.879 237.116 206.552 244.928 204.744 248.49L204.991 277.714C204.991 277.714 196.328 280.874 189.096 279.912L188.027 233.017C188.027 233.017 189.593 206.424 190.17 201.323C190.509 198.674 190.645 196.004 190.578 193.335C190.578 193.335 190.331 185.352 189.508 181.647C189.508 181.647 188.613 165.597 188.519 161.153C188.479 159.028 188.595 152.826 188.716 146.928C188.855 140.48 189.011 134.399 189.011 134.399L186.855 121.302C186.855 121.302 189.011 121.302 189.508 121.968C189.727 122.177 189.967 122.361 190.224 122.519C193.043 124.425 203.008 130.287 203.008 130.287C203.008 130.287 208.517 132.48 209.837 135.621C211.157 138.762 212.074 140.99 212.718 141.885C213.363 142.78 213.703 146.986 213.703 146.986C213.703 146.986 215.6 154.728 217.081 156.039C218.562 157.35 219.632 165.673 219.632 165.673L206.543 175.965C206.543 175.965 205.393 193.085 205.143 193.747C204.892 194.409 209.926 209.211 209.926 209.211Z" fill="white"/>
<path opacity="0.1" d="M194.251 138.198L195.433 141.643L189.213 147.908C189.352 141.464 189.508 135.379 189.508 135.379L187.351 122.281C187.351 122.281 189.508 122.281 190.005 122.948C190.223 123.156 190.463 123.339 190.721 123.494L196.01 138.753L194.251 138.198Z" fill="black"/>
<path d="M193.755 137.208L194.94 140.654L188.721 146.919C188.859 140.471 189.016 134.389 189.016 134.389L186.855 121.292C186.855 121.292 189.016 121.292 189.508 121.959C189.728 122.166 189.967 122.35 190.224 122.509L195.518 137.763L193.755 137.208Z" fill="white"/>
<path opacity="0.1" d="M193.755 103.117C193.758 104.73 193.504 106.332 193.003 107.865C192.918 107.878 192.832 107.874 192.749 107.853C192.666 107.833 192.588 107.795 192.52 107.744C192.403 103.717 190.421 99.9356 187.982 96.7183C187.298 95.7469 186.468 94.8866 185.521 94.1677C184.564 93.4492 183.374 93.1126 182.183 93.2236C180.841 93.407 179.655 94.3199 178.299 94.4362C176.509 94.5839 174.907 93.3444 173.131 93.2817C172.409 93.2886 171.696 93.4494 171.041 93.7534C170.386 94.0574 169.803 94.4977 169.332 95.0448C168.399 96.1488 167.705 97.4349 167.296 98.8214C166.592 100.924 166.209 103.12 166.159 105.337C166.137 106.589 166.016 108.16 164.853 108.616C164.94 107.695 164.836 106.765 164.545 105.887C164.255 105.008 163.785 104.199 163.166 103.511L163.139 103.484C163.139 103.359 163.139 103.242 163.139 103.117C163.104 101.085 163.474 99.0654 164.228 97.1774C164.982 95.2895 166.104 93.5705 167.529 92.1208C168.954 90.6711 170.654 89.5197 172.529 88.7337C174.404 87.9478 176.416 87.543 178.449 87.543C180.482 87.543 182.494 87.9478 184.369 88.7337C186.244 89.5197 187.943 90.6711 189.369 92.1208C190.794 93.5705 191.916 95.2895 192.67 97.1774C193.424 99.0654 193.794 101.085 193.759 103.117H193.755Z" fill="black"/>
<path d="M184.787 78.8055C182.462 77.7117 179.817 77.5048 177.35 78.2238C176.111 78.5907 174.943 79.1858 173.686 79.4856C171.001 80.1344 167.869 79.4319 165.564 81.0025C164.284 81.8975 163.515 83.3115 162.799 84.6852L161.009 88.0949C160.033 89.9609 159.049 91.8581 158.642 93.912C158.235 95.9659 158.481 98.2659 159.783 99.917C160.731 101.121 162.132 101.877 163.161 103.009C163.778 103.698 164.245 104.506 164.535 105.384C164.825 106.262 164.93 107.19 164.844 108.11C166.012 107.663 166.123 106.088 166.15 104.835C166.2 102.618 166.583 100.422 167.287 98.3196C167.695 96.9327 168.389 95.6464 169.323 94.5429C169.795 93.9963 170.378 93.5564 171.033 93.2524C171.688 92.9484 172.4 92.7873 173.122 92.7799C174.912 92.8426 176.518 94.0776 178.29 93.9299C179.633 93.818 180.823 92.9007 182.174 92.7217C183.366 92.609 184.556 92.9458 185.512 93.6659C186.458 94.3837 187.287 95.2442 187.969 96.2165C190.412 99.4338 192.394 103.206 192.511 107.242C193.016 107.614 193.746 107.13 193.996 106.557C194.247 105.985 194.256 105.314 194.574 104.768C194.94 104.137 195.643 103.801 196.193 103.327C197.589 102.123 197.939 100.096 197.885 98.2569C197.831 96.4178 197.473 94.5519 197.822 92.7441C198.032 91.6344 198.507 90.5963 198.766 89.5C199.026 88.4037 199.057 87.1731 198.444 86.229C197.549 84.8418 195.665 84.5689 194.023 84.4391C192.157 84.278 190.488 84.4838 189.298 82.9132C188.739 82.0936 188.11 81.3241 187.419 80.6132C187.181 80.3806 184.787 78.9039 184.787 78.8055Z" fill="#512E4E"/>
<path opacity="0.1" d="M136.152 173.168L131.476 164.522L129.995 177.862C129.995 177.862 130.818 183.786 130.653 184.694C130.487 185.603 134.026 193.747 134.026 193.747C134.026 193.747 145.719 214.572 150.493 215.646L166.625 204.119L162.347 198.687C162.347 198.687 160.866 198.109 160.494 198.687C160.494 198.687 152.552 185.021 151.728 184.032C150.905 183.043 151.066 181.07 151.066 181.07C151.066 181.07 149.831 179.754 150.243 178.519C150.654 177.284 147.858 173.002 147.858 173.002L150.408 170.617L136.152 173.168Z" fill="black"/>
<path d="M131.722 163.538L130.487 164.523L129.006 177.862C129.006 177.862 129.829 183.786 129.664 184.694C129.498 185.603 133.042 193.747 133.042 193.747C133.042 193.747 144.73 214.572 149.504 215.646L165.64 204.119L161.358 198.687C161.358 198.687 159.877 198.11 159.505 198.687C159.505 198.687 151.563 185.021 150.739 184.032C149.916 183.043 150.082 181.07 150.082 181.07C150.082 181.07 148.847 179.754 149.258 178.519C149.67 177.284 146.869 173.002 146.869 173.002L149.419 170.617L131.722 163.538Z" fill="white"/>
<path opacity="0.1" d="M208.36 215.794C209.255 216.881 208.691 221.763 208.691 221.763L206.221 225.853C206.221 225.853 206.369 228.493 206.378 232.05L202.225 233.348C201.85 233.465 201.452 233.491 201.065 233.423C200.678 233.355 200.312 233.196 199.999 232.958C199.686 232.72 199.434 232.411 199.265 232.056C199.096 231.701 199.014 231.311 199.026 230.918L199.742 207.824L209.429 211.529C208.606 212.102 209.51 213.507 209.51 213.507C209.51 213.507 207.456 214.706 208.36 215.794Z" fill="black"/>
<path d="M208.857 215.297C209.752 216.384 209.188 221.271 209.188 221.271L206.718 225.361C206.718 225.361 206.866 227.996 206.879 231.558L202.65 232.878C202.283 232.992 201.893 233.017 201.514 232.95C201.135 232.884 200.778 232.727 200.471 232.494C200.165 232.261 199.918 231.959 199.753 231.611C199.587 231.264 199.506 230.882 199.518 230.498L200.238 207.332L209.931 211.037C209.103 211.61 210.007 213.01 210.007 213.01C210.007 213.01 207.962 214.214 208.857 215.297Z" fill="white"/>
<path d="M212.065 204.29C212.065 204.29 211.407 208.491 209.761 208.737C208.114 208.984 207.376 215.535 205.733 215.302C204.091 215.069 205.179 209.212 205.237 208.075C205.295 206.939 203.447 202.231 204.83 201.162C206.212 200.092 210.588 201.162 210.588 201.162L212.065 204.29Z" fill="#CF6F80"/>
<path opacity="0.1" d="M215.569 171.933L218.674 165.668C218.674 165.668 219.909 170.442 219.909 172.993C219.909 175.544 221.636 175.794 221.636 175.794C221.636 175.794 223.529 178.032 222.531 179.66C221.534 181.289 221.131 185.343 221.131 185.343C221.131 185.343 221.457 193.08 219.976 194.149C218.495 195.219 218.186 197.774 218.186 197.774C218.186 197.774 215.466 202.629 215.551 203.783C215.636 204.938 211.765 212.755 211.765 212.755C211.765 212.755 213.658 203.041 202.628 198.843C202.628 198.843 202.543 195.545 203.366 194.642C204.19 193.738 205.474 193.326 204.668 188.757C203.863 184.189 204.436 178.73 204.436 177.633C204.436 176.537 206.906 169.7 206.906 169.7L215.569 171.933Z" fill="black"/>
<path d="M216.911 164.773L219.623 165.668C219.623 165.668 220.862 170.443 220.862 172.993C220.862 175.544 222.59 175.795 222.59 175.795C222.59 175.795 224.482 178.032 223.485 179.661C222.487 181.29 222.088 185.344 222.088 185.344C222.088 185.344 222.415 193.08 220.934 194.15C219.453 195.219 219.122 197.774 219.122 197.774C219.122 197.774 216.406 202.629 216.491 203.784C216.576 204.938 212.7 212.756 212.7 212.756C212.7 212.756 214.598 203.041 203.563 198.844C203.563 198.844 203.483 195.546 204.306 194.642C205.129 193.738 206.414 193.326 205.608 188.758C204.803 184.189 205.375 178.73 205.375 177.634C205.375 176.537 207.845 169.7 207.845 169.7L216.911 164.773Z" fill="white"/>
<path opacity="0.1" d="M157.017 327.146C157.017 327.146 161.34 324.43 164.177 326.403C167.014 328.377 157.017 327.146 157.017 327.146Z" fill="black"/>
<path opacity="0.1" d="M190.604 318.747C190.604 318.747 194.43 318.255 197.643 321.714C200.856 325.172 190.604 318.747 190.604 318.747Z" fill="black"/>
<g opacity="0.1">
<path d="M196.202 102.346C195.652 102.821 194.945 103.161 194.578 103.792C194.265 104.333 194.256 105 194.005 105.582C193.755 106.163 193.025 106.638 192.52 106.271C192.403 102.244 190.417 98.4624 187.978 95.2406C187.296 94.2683 186.467 93.4079 185.521 92.6901C184.563 91.97 183.372 91.6333 182.179 91.7459C180.836 91.9294 179.655 92.8422 178.299 92.9541C176.509 93.1062 174.903 91.8667 173.126 91.8041C172.404 91.8112 171.692 91.9727 171.038 92.2775C170.383 92.5823 169.802 93.0236 169.332 93.5716C168.398 94.6733 167.704 95.9582 167.296 97.3437C166.593 99.4462 166.209 101.642 166.159 103.859C166.132 105.107 166.016 106.664 164.862 107.13C164.888 107.46 164.888 107.793 164.862 108.123C166.025 107.676 166.141 106.101 166.168 104.848C166.218 102.631 166.601 100.435 167.305 98.3326C167.713 96.9458 168.407 95.6594 169.341 94.556C169.812 94.0095 170.394 93.5696 171.048 93.2656C171.702 92.9616 172.414 92.8005 173.135 92.793C174.925 92.8556 176.536 94.0906 178.308 93.943C179.65 93.8311 180.841 92.9138 182.188 92.7348C183.38 92.6222 184.572 92.9589 185.53 93.679C186.476 94.3968 187.305 95.2572 187.987 96.2295C190.425 99.4468 192.412 103.219 192.529 107.255C193.034 107.627 193.764 107.143 194.014 106.571C194.265 105.998 194.274 105.327 194.587 104.781C194.954 104.15 195.661 103.814 196.211 103.34C197.607 102.136 197.956 100.109 197.903 98.27C197.903 98.2118 197.903 98.1536 197.903 98.1C197.818 99.6929 197.393 101.317 196.202 102.346Z" fill="black"/>
<path d="M163.17 102.03C162.141 100.898 160.736 100.141 159.792 98.9421C158.997 97.8805 158.543 96.6026 158.49 95.2773C158.349 96.9334 158.811 98.5845 159.792 99.9265C160.736 101.13 162.141 101.886 163.17 103.019C164.158 104.126 164.752 105.53 164.857 107.01C164.926 106.109 164.812 105.204 164.522 104.348C164.232 103.492 163.772 102.704 163.17 102.03Z" fill="black"/>
<path d="M198.775 88.5198C198.511 89.6161 198.041 90.6587 197.827 91.7639C197.699 92.5025 197.653 93.2527 197.688 94.0013C197.703 93.5748 197.749 93.1501 197.827 92.7305C198.041 91.6207 198.511 90.5826 198.775 89.4863C198.929 88.8816 198.979 88.2552 198.923 87.6338C198.895 87.9323 198.846 88.2284 198.775 88.5198Z" fill="black"/>
</g>
<path opacity="0.1" d="M76.3925 345.34C100.473 345.34 119.994 342.204 119.994 338.337C119.994 334.469 100.473 331.334 76.3925 331.334C52.3121 331.334 32.7911 334.469 32.7911 338.337C32.7911 342.204 52.3121 345.34 76.3925 345.34Z" fill="#6C63FF"/>
<path d="M77.7976 204.187H74.9919V267.356H77.7976V204.187Z" fill="#535461"/>
<path d="M95.4278 267.163L95.2533 270.009L95.0027 274.036L94.8998 275.709L94.6537 279.737L94.5463 281.41L94.2957 285.437L91.4677 331.11C91.3448 333.076 90.4777 334.92 89.0429 336.268C87.6081 337.617 85.7134 338.368 83.7444 338.368H69.0406C67.0721 338.368 65.1779 337.617 63.7438 336.268C62.3097 334.92 61.4436 333.075 61.3218 331.11L58.5072 285.406L58.2566 281.379L58.1537 279.705L57.9031 275.678L57.8002 274.005L57.5496 269.977L57.3706 267.131C57.3395 266.584 57.4207 266.035 57.6091 265.52C57.7975 265.005 58.0892 264.534 58.4663 264.135C58.8434 263.737 59.298 263.419 59.8021 263.203C60.3062 262.986 60.8492 262.875 61.3978 262.876H91.4722C92.0188 262.881 92.5585 262.997 93.0583 263.219C93.558 263.44 94.007 263.762 94.3777 264.163C94.7483 264.565 95.0328 265.038 95.2134 265.554C95.394 266.07 95.467 266.618 95.4278 267.163Z" fill="#3F3D56"/>
<path d="M95.2534 270.009L95.0028 274.023H57.7823L57.5317 270.009H95.2534Z" fill="#9D9CB5"/>
<path d="M94.8997 275.696L94.6536 279.715H58.1357L57.8851 275.696H94.8997Z" fill="#9D9CB5"/>
<path d="M94.5463 281.393L94.3002 285.406H58.4892L58.2386 281.393H94.5463Z" fill="#9D9CB5"/>
<path d="M53.2494 227.862C69.5865 239.685 76.4059 258.174 76.4059 258.174C76.4059 258.174 56.7173 257.498 40.3757 245.676C24.0342 233.854 17.2281 215.369 17.2281 215.369C17.2281 215.369 36.9078 216.04 53.2494 227.862Z" fill="#6C63FF"/>
<path d="M17.2147 215.369C17.2147 215.369 37.6551 226.712 44.2105 236.105C50.7659 245.497 76.4059 258.174 76.4059 258.174" stroke="#535461" stroke-width="0.894938" stroke-miterlimit="10"/>
<path d="M63.7963 204.048C72.6875 210.478 76.406 220.541 76.406 220.541C76.406 220.541 65.6891 220.174 56.7934 213.744C47.8977 207.314 44.1882 197.246 44.1882 197.246C44.1882 197.246 54.9006 197.613 63.7963 204.048Z" fill="#6C63FF"/>
<path d="M44.1882 197.246C44.1882 197.246 55.3123 203.421 58.8786 208.531C62.445 213.641 76.406 220.541 76.406 220.541" stroke="#535461" stroke-width="0.894938" stroke-miterlimit="10"/>
<path d="M89.3155 220.031C79.0998 231.258 76.9385 245.931 76.9385 245.931C76.9385 245.931 91.3425 242.396 101.549 231.164C111.756 219.933 113.926 205.265 113.926 205.265C113.926 205.265 99.5312 208.804 89.3155 220.031Z" fill="#6C63FF"/>
<path d="M113.935 205.269C113.935 205.269 100.627 216.777 97.2446 224.707C93.8617 232.636 76.9385 245.93 76.9385 245.93" stroke="#535461" stroke-width="0.894938" stroke-miterlimit="10"/>
<path d="M464.321 216.08C464.321 216.08 456.933 179.325 459.761 174.752C459.761 174.752 459.864 170.501 459.694 165.082C459.694 164.876 459.694 164.67 459.694 164.46C460.192 164.792 460.711 165.091 461.247 165.355C463.853 166.694 466.844 167.08 469.704 166.447L467.467 163.954C466.93 163.359 466.371 162.715 466.254 161.927C466.138 161.14 466.46 160.437 466.737 159.735C468.863 154.365 468.975 147.613 464.88 143.514C461.422 140.068 460.58 135.621 456.826 132.475C454.083 130.17 452.575 126.792 451.152 123.526C449.948 120.765 448.736 117.981 448.047 115.055C447.51 112.768 447.295 110.401 446.557 108.168C445.818 105.936 444.436 103.765 442.274 102.767C441.505 102.414 440.65 102.213 439.948 101.743C439.026 101.121 438.471 100.11 437.804 99.2235C434.417 94.7488 423.073 97.3844 417.704 99.2011C416.244 99.6587 414.892 100.408 413.73 101.403L413.78 101.322C413.82 101.255 413.869 101.188 413.914 101.121C413.326 101.596 412.818 102.163 412.41 102.799C411.627 104.038 411.301 105.484 410.647 106.826C409.86 108.415 405.479 112.849 407.363 114.634C407.495 114.754 407.646 114.851 407.81 114.921C408.518 115.215 409.296 115.293 410.048 115.144L409.967 115.337C409.324 116.912 408.994 118.598 408.996 120.299C408.996 127.651 415.059 133.611 422.545 133.611C423.953 133.613 425.352 133.397 426.693 132.972C426.725 133.142 426.752 133.312 426.783 133.482C426.783 133.549 426.805 133.616 426.814 133.683L426.577 134.014C426.565 133.994 426.552 133.974 426.537 133.956L419.512 143.774C418.438 144.53 412.254 149.004 411.905 152.36C411.538 156.034 411.171 160.334 411.171 160.334L411.122 161.256C410.815 161.513 410.455 161.7 410.069 161.804C409.683 161.908 409.279 161.927 408.884 161.86C406.692 161.502 406.692 169.915 406.692 169.915C406.692 169.915 405.233 171.257 404.231 170.094C403.228 168.93 400.579 172.872 400.579 172.872L383.978 173.588L383.598 173.611L382.703 170.841C382.607 170.549 382.399 170.306 382.125 170.166C381.851 170.027 381.533 170 381.24 170.094C381.17 170.116 381.103 170.145 381.038 170.179L380.976 170.214L380.859 170.295L380.801 170.349C380.769 170.378 380.739 170.409 380.712 170.443L380.658 170.505L380.631 170.532C380.528 170.675 380.459 170.84 380.431 171.014C380.403 171.188 380.417 171.366 380.47 171.534L381.24 173.911C378.036 174.555 374.76 176.372 377.432 181.374L363.891 178.873L368.272 182.551L390.887 187.218C390.587 187.755 390.784 188.534 391.719 189.63C395.747 194.36 403.085 195.644 406.038 195.975C406.818 197.72 407.792 199.371 408.942 200.897L408.687 205.609C408.687 205.609 401.21 241.523 399.841 243.344C400.532 242.561 401.165 241.728 401.734 240.852C399.563 248.231 396.53 258.33 395.733 259.842C394.453 262.259 393.268 272.036 394.726 272.662C395.174 272.855 396.454 272.761 398.279 272.622V273.432L398.199 304.124C398.199 304.124 398.566 322.949 397.559 324.743C396.552 326.538 396.284 330.301 396.284 330.301C396.284 330.301 392.256 337.724 389.066 340.709C389.044 340.732 389.02 340.753 388.994 340.772L388.896 340.074C388.896 340.074 385.061 344.915 376.577 344.642C376.577 344.642 371.471 347.962 379.043 348.141C386.614 348.32 396.284 347.873 396.284 347.873C396.284 347.873 403.036 337.581 408.692 338.924V346.723H410.424V338.798C411.227 338.27 411.914 337.583 412.444 336.781C412.974 335.979 413.335 335.077 413.507 334.131C413.655 333.156 413.546 332.159 413.192 331.239C412.837 330.318 412.248 329.506 411.484 328.882C411.141 328.572 410.865 328.194 410.675 327.772C410.485 327.35 410.384 326.893 410.379 326.43L410.316 326.484C410.316 326.327 410.276 326.166 410.258 326.001C409.761 321.973 409.139 313.664 411.336 307.516C414.348 299.085 415.261 287.344 413.068 280.354C412.361 278.12 411.779 275.848 411.327 273.548C411.274 273.258 411.225 272.98 411.18 272.721C412.679 272.923 414.163 273.222 415.623 273.616C420.702 275.016 431.813 275.276 441.299 275.2C441.321 275.459 441.348 275.732 441.379 276.005C441.549 277.902 441.902 279.779 442.435 281.607C443.626 285.187 444.172 300.969 444.172 300.969C444.172 300.969 445.706 313.946 444.87 319.226C444.422 322.161 443.975 325.11 443.72 328.072V328.131C443.72 328.131 441.205 335.29 439.366 339.179C439.321 339.277 439.272 339.376 439.227 339.469C438.737 339.514 438.254 339.621 437.791 339.787C437.791 339.787 435.325 344.709 432.869 345.524C430.412 346.338 431.226 349.018 436.788 348.034C442.35 347.05 450.749 346.244 450.749 346.244L451.112 341.224L452.821 339.085L452.374 344.092L454.195 343.734L453.953 337.644L456.75 334.145C456.75 334.145 460.128 331.138 455.108 325.222V325.352C455.054 325.267 455.005 325.177 454.947 325.092V325.065C454.114 323.777 453.452 321.374 454.665 317.109C456.857 309.404 458.133 302.41 458.133 302.41C458.133 302.41 463.028 283.675 457.144 274.81H457.403C456.8 273.563 456.374 272.238 456.137 270.873C456.107 270.711 456.08 270.546 456.056 270.376C460.41 270.125 464.684 269.338 468.169 267.637C468.156 267.619 466.057 223.159 464.321 216.08ZM409.045 185.07V185.16L408.15 185.205L409.045 185.07ZM405.976 185.496C405.829 185.528 405.691 185.594 405.573 185.688C405.188 186.232 404.947 186.865 404.87 187.527L403.474 187.214C403.474 187.214 402.494 187.003 401.085 186.766L400.418 186.095C402.253 185.943 404.159 185.719 405.976 185.496Z" fill="url(#paint1_linear_2217_350)"/>
<path d="M452.168 337.706L451.635 344.047L453.421 343.689L453.152 336.812L452.168 337.706Z" fill="#1D2366"/>
<path d="M411.435 307.6C409.282 313.731 409.891 322.004 410.374 326.023C410.553 327.508 410.719 328.412 410.719 328.412C410.719 328.412 407.502 335.742 407.233 336.019C406.965 336.297 397.765 341.912 397.765 341.912L391.334 345.667C391.334 345.667 384.81 342.807 387.938 341.823C388.577 341.566 389.153 341.174 389.625 340.673C392.757 337.697 396.691 330.3 396.691 330.3C396.691 330.3 396.959 326.546 397.944 324.761C398.928 322.975 398.57 304.213 398.57 304.213L398.646 273.629V269.642L410.884 269.731C410.962 271.085 411.138 272.431 411.412 273.758C411.852 276.05 412.421 278.315 413.117 280.542C415.274 287.518 414.379 299.201 411.435 307.6Z" fill="#FFB0B1"/>
<path opacity="0.1" d="M410.719 328.413C410.719 328.413 407.502 335.742 407.233 336.02C406.965 336.297 397.765 341.913 397.765 341.913L391.334 345.667C391.334 345.667 384.81 342.808 387.938 341.823C388.577 341.567 389.153 341.175 389.625 340.673L389.903 342.629L392.046 342.539L410.392 326.032C410.553 327.509 410.719 328.413 410.719 328.413Z" fill="black"/>
<path d="M410.495 326.448L392.046 343.067L389.903 343.157L389.455 340.024C389.455 340.024 385.705 344.848 377.374 344.58C377.374 344.58 372.371 347.886 379.785 348.065C387.2 348.244 396.668 347.797 396.668 347.797C396.668 347.797 403.282 337.505 408.817 338.848V346.62H410.518V338.776C411.308 338.244 411.983 337.557 412.501 336.757C413.019 335.958 413.371 335.061 413.533 334.122C413.681 333.155 413.576 332.166 413.231 331.251C412.885 330.335 412.31 329.524 411.56 328.896C411.225 328.582 410.958 328.203 410.775 327.782C410.592 327.361 410.497 326.907 410.495 326.448Z" fill="#1D2366"/>
<path d="M453.868 317.159C452.678 321.41 453.327 323.804 454.141 325.088V325.115C455.186 326.7 455.912 328.474 456.28 330.337L456.352 330.739L447.957 342.978L443.402 344.767C443.402 344.767 436.077 342.266 437.415 341.55C437.75 341.376 438.274 340.445 438.874 339.161C440.663 335.29 443.133 328.148 443.133 328.148V328.09C443.393 325.141 443.805 322.202 444.261 319.275C445.08 314.008 443.576 301.081 443.576 301.081C443.576 301.081 443.039 285.361 441.876 281.786C441.351 279.968 441.002 278.104 440.833 276.22C440.592 273.982 440.538 272.139 440.538 272.139C440.538 272.139 445.362 265.427 454.204 272.676C454.911 273.254 455.533 273.929 456.052 274.68C462.16 283.37 457.242 302.513 457.242 302.513C457.242 302.513 456.012 309.476 453.868 317.159Z" fill="#FFB0B1"/>
<path opacity="0.1" d="M456.365 330.739L447.971 342.978L443.415 344.768C443.415 344.768 436.09 342.266 437.428 341.55C437.764 341.376 438.287 340.445 438.887 339.161C441.988 339.134 443.594 342.087 443.594 342.087L447.523 341.461C447.523 341.461 452.705 331.276 453.868 330.654C455.032 330.032 454.047 326.005 454.047 326.005V324.98C454.078 325.016 454.105 325.057 454.141 325.092V325.119C455.186 326.705 455.912 328.478 456.28 330.341L456.365 330.739Z" fill="black"/>
<path d="M443.863 342.351C443.863 342.351 441.625 338.244 437.339 339.761C437.339 339.761 434.927 344.683 432.515 345.479C430.103 346.276 430.909 348.961 436.359 347.981C441.809 347.001 450.024 346.191 450.024 346.191L450.382 341.184L455.922 334.127C455.922 334.127 459.224 331.133 454.311 325.24V326.265C454.311 326.265 455.296 330.292 454.132 330.914C452.969 331.536 447.805 341.725 447.805 341.725L443.863 342.351Z" fill="#1D2366"/>
<path opacity="0.1" d="M410.898 269.722C410.975 271.076 411.151 272.422 411.426 273.75C406.387 273.011 401.711 273.378 398.646 273.62V269.633L410.898 269.722Z" fill="black"/>
<path opacity="0.1" d="M456.549 275.794C456.549 275.794 449.389 276.143 440.851 276.215C440.61 273.977 440.556 272.134 440.556 272.134C440.556 272.134 445.38 265.422 454.222 272.671C454.929 273.249 455.551 273.924 456.07 274.675C456.208 275.057 456.368 275.43 456.549 275.794Z" fill="black"/>
<path d="M456.549 274.989C456.549 274.989 425.19 276.506 415.632 273.825C406.074 271.145 396.601 273.467 395.174 272.845C393.746 272.223 394.905 262.482 396.158 260.07C397.411 257.658 404.284 233.267 404.284 233.267L410.898 198.785L417.865 196.865L418.357 196.727L430.497 193.379L439.393 190.923C439.393 190.923 457.081 259.981 455.564 265.073C455.013 267.023 454.924 269.074 455.305 271.065C455.536 272.424 455.955 273.744 456.549 274.989Z" fill="#1D2366"/>
<path d="M387.844 175.204C387.844 175.204 381.58 181.916 386.323 185.657C391.066 189.398 394.185 186.015 394.185 186.015L387.844 175.204Z" fill="#C7DAF5"/>
<path opacity="0.1" d="M387.844 175.204C387.844 175.204 381.58 181.916 386.323 185.657C391.066 189.398 394.185 186.015 394.185 186.015L387.844 175.204Z" fill="black"/>
<path d="M438.457 131.074C438.457 131.074 437.724 131.773 436.618 132.802C435.043 134.274 432.712 136.426 430.645 138.229C427.781 140.722 425.418 142.552 426.264 140.99C427.11 139.429 426.949 136.708 426.528 134.162C426.497 133.992 426.47 133.822 426.438 133.656C426.09 131.786 425.628 129.939 425.056 128.126C425.056 128.126 429.683 122.147 432.242 119.789C433.195 118.894 433.862 118.527 433.902 119.149C433.947 119.986 434.573 121.834 435.352 123.794C435.374 123.857 435.397 123.915 435.424 123.978C435.943 125.32 436.529 126.698 437.043 127.889C437.831 129.714 438.457 131.074 438.457 131.074Z" fill="#FFB0B1"/>
<path opacity="0.1" d="M435.424 123.977C434.989 126.316 433.934 128.495 432.369 130.286C430.804 132.078 428.787 133.416 426.528 134.162C426.172 132.119 425.68 130.102 425.056 128.125C425.056 128.125 433.768 116.871 433.902 119.149C433.934 120.013 434.614 121.928 435.424 123.977Z" fill="black"/>
<path opacity="0.1" d="M425.66 137.169L426.787 135.58C426.787 135.58 427.535 140.135 430.282 138.126C433.03 136.117 433.164 153.246 433.164 153.246L430.215 197.335L408.907 196.06L409.511 174.756L411.923 164.017L417.887 148.405L421.436 143.245L425.66 137.169Z" fill="black"/>
<path d="M433.164 153.519L430.479 193.384L430.197 197.609L418.317 196.897L417.869 196.87L408.92 196.333L409.524 175.025L411.936 164.286L417.901 148.673L421.449 143.514L425.673 137.415L426.801 135.831C426.801 135.831 427.548 140.386 430.296 138.377L430.354 138.337C433.039 136.636 433.164 153.519 433.164 153.519Z" fill="#1D2366"/>
<path d="M412.236 160.554C412.236 160.554 411.166 162.791 409.018 162.429C406.871 162.066 406.875 170.483 406.875 170.483C406.875 170.483 405.448 171.825 404.463 170.662C403.479 169.499 400.883 173.432 400.883 173.432L384.622 174.148C384.622 174.148 391.858 177.455 390.44 187.46C390.44 187.46 415.006 185.939 415.811 183.616C416.616 181.294 412.236 160.554 412.236 160.554Z" fill="white"/>
<path opacity="0.03" d="M412.236 160.554C412.236 160.554 411.166 162.791 409.018 162.429C406.871 162.066 406.875 170.483 406.875 170.483C406.875 170.483 405.448 171.825 404.463 170.662C403.479 169.499 400.883 173.432 400.883 173.432L384.622 174.148C384.622 174.148 391.858 177.455 390.44 187.46C390.44 187.46 415.006 185.939 415.811 183.616C416.616 181.294 412.236 160.554 412.236 160.554Z" fill="black"/>
<path d="M364.979 179.405L369.265 183.066L404.553 190.48L400.176 186.014L364.979 179.405Z" fill="white"/>
<path d="M425.727 138.578C425.141 139.473 423.463 144.055 422.062 148.056C420.894 151.389 419.919 154.32 419.919 154.32C419.919 154.32 417.641 169.149 416.478 171.83C415.314 174.51 415.945 184.963 415.945 184.963L411.609 210.777C411.609 210.777 409.645 224.09 406.611 232.041C403.617 239.867 400.284 243.537 400.181 243.653C401.523 241.836 408.839 206.066 408.839 206.066L411.256 160.952C411.256 160.952 411.609 156.665 411.967 153C412.325 149.336 419.574 144.333 419.574 144.333L426.564 134.395C427.266 135.334 426.796 136.972 425.727 138.578Z" fill="white"/>
<path d="M407.502 196.557C407.502 196.557 397.21 196.11 392.225 190.122C387.24 184.135 403.747 187.733 403.747 187.733L408.039 188.717L407.502 196.557Z" fill="#FFB0B1"/>
<path opacity="0.1" d="M455.564 265.079C455.013 267.028 454.924 269.08 455.305 271.07C444.078 271.867 432.068 268.833 432.068 268.833C429.83 270.891 423.937 273.925 423.937 273.925L420.724 234.1C418.67 228.731 417.865 200.598 417.865 200.598C417.865 200.598 418.048 199.126 418.312 196.92C418.312 196.866 418.312 196.808 418.335 196.755C419.136 190.593 420.724 179.026 421.503 177.464C422.577 175.316 418.2 169.602 418.2 169.602L420.192 152.621L420.433 150.571C424.631 148.696 427.848 142.709 427.848 142.709L430.318 138.382C433.003 136.659 433.141 153.542 433.141 153.542L430.457 193.407L439.352 190.951C439.352 190.951 457.081 259.986 455.564 265.079Z" fill="black"/>
<path d="M467.086 267.829C454.848 273.906 432.605 268.277 432.605 268.277C430.367 270.335 424.474 273.369 424.474 273.369L421.257 233.544C419.207 228.175 418.402 200.042 418.402 200.042C418.402 200.042 420.988 179.052 422.062 176.908C422.375 176.282 422.223 175.351 421.852 174.349C420.026 169.578 419.354 164.443 419.892 159.363L420.751 152.065L420.988 150.02C425.19 148.141 428.407 142.153 428.407 142.153L430.645 138.234L434.761 131.011L436.712 127.593L437.043 127.893L439.572 130.184C439.572 130.184 440.646 131.079 442.256 132.421C445.76 135.374 451.814 140.574 454.938 143.755C457.685 146.556 458.553 157.452 458.804 165.654C458.969 171.055 458.871 175.288 458.871 175.288C456.101 179.848 463.346 216.456 463.346 216.456C465.033 223.53 467.086 267.829 467.086 267.829Z" fill="white"/>
<path opacity="0.03" d="M443.594 142.065C443.594 142.065 435.195 158.053 436.171 164.129C437.146 170.206 439.921 177.084 438.583 178.69C438.123 179.299 437.529 179.793 436.846 180.133C436.164 180.474 435.412 180.653 434.649 180.654C433.307 180.744 429.727 183.245 429.727 183.514C429.727 183.782 426.421 183.782 423.463 185.035C420.505 186.288 416.138 187 416.138 187C416.138 187 407.636 186.731 406.844 187.537C406.052 188.342 405.237 193.161 406.933 197.005C408.629 200.849 410.513 203.717 411.936 204.241C413.359 204.764 422.389 201.739 429.714 201.023C437.039 200.307 444.991 194.504 444.991 194.504C444.991 194.504 453.747 191.371 455.282 186.105C456.817 180.838 453.407 151.891 453.407 151.891C453.407 151.891 450.83 138.4 443.594 142.065Z" fill="black"/>
<path opacity="0.03" d="M442.521 140.722C442.521 140.722 434.122 156.714 435.106 162.786C436.09 168.859 438.856 175.741 437.513 177.351C437.055 177.961 436.462 178.455 435.78 178.796C435.098 179.137 434.347 179.315 433.585 179.316C432.242 179.405 428.662 181.907 428.662 182.175C428.662 182.444 425.356 182.444 422.398 183.692C419.44 184.941 415.073 185.657 415.073 185.657C415.073 185.657 406.571 185.388 405.783 186.193C404.996 186.999 404.172 191.823 405.873 195.662C407.573 199.501 409.453 202.374 410.876 202.897C412.298 203.421 421.328 200.396 428.653 199.685C435.979 198.973 443.93 193.161 443.93 193.161C443.93 193.161 452.683 190.028 454.199 184.766C455.716 179.504 452.325 150.548 452.325 150.548C452.325 150.548 449.756 137.061 442.521 140.722Z" fill="black"/>
<path d="M443.33 141.259C443.33 141.259 434.931 157.251 435.916 163.323C436.9 169.396 439.666 176.278 438.328 177.884C437.87 178.495 437.276 178.991 436.593 179.332C435.911 179.674 435.158 179.852 434.394 179.853C433.052 179.942 429.472 182.444 429.472 182.708C429.472 182.972 426.17 182.976 423.208 184.229C420.245 185.482 415.883 186.194 415.883 186.194C415.883 186.194 407.381 185.925 406.589 186.73C405.797 187.536 404.982 192.36 406.678 196.199C408.374 200.038 410.258 202.911 411.681 203.434C413.104 203.958 422.134 200.933 429.459 200.217C436.784 199.501 444.735 193.698 444.735 193.698C444.735 193.698 453.492 190.565 455.027 185.299C456.562 180.032 453.175 151.085 453.175 151.085C453.175 151.085 450.561 137.616 443.33 141.259Z" fill="white"/>
<path opacity="0.1" d="M443.147 184.153C443.147 184.153 436.435 182.811 438.771 185.048C441.106 187.286 441.093 189.245 443.952 189.156C446.812 189.067 443.147 184.153 443.147 184.153Z" fill="black"/>
<path opacity="0.1" d="M454.49 232.291C454.49 232.291 451.456 234.345 457.26 239.079C463.064 243.813 454.49 232.291 454.49 232.291Z" fill="black"/>
<path opacity="0.1" d="M448.7 249.175C448.7 249.443 447.626 259.019 451.644 261.413C455.663 263.807 448.7 249.175 448.7 249.175Z" fill="black"/>
<path d="M384.9 174.125C381.66 174.237 374.662 175.226 378.291 181.996C381.499 187.988 386.891 183.983 389.925 180.944C389.185 178.112 387.386 175.671 384.9 174.125Z" fill="#FFB0B1"/>
<path opacity="0.1" d="M442.256 132.694C438.82 135.043 435.938 137.025 435.374 137.437C433.835 138.578 430.9 145.276 429.007 148.695C427.499 151.447 422.599 152.154 420.751 152.329L420.988 150.284C425.19 148.404 428.407 142.417 428.407 142.417L436.712 127.856L439.572 130.456C439.572 130.456 440.646 131.351 442.256 132.694Z" fill="black"/>
<path d="M442.256 132.425C438.82 134.774 435.938 136.757 435.374 137.173C433.835 138.309 430.9 145.008 429.007 148.427C427.499 151.178 422.599 151.885 420.751 152.06L420.988 150.015C425.19 148.136 428.407 142.149 428.407 142.149L436.712 127.588L439.572 130.179C439.572 130.179 440.646 131.065 442.256 132.425Z" fill="#DCE7FF"/>
<path d="M435.643 121.025C435.645 123.711 434.83 126.334 433.307 128.546C431.508 131.163 428.831 133.047 425.762 133.858C422.692 134.669 419.434 134.353 416.578 132.968C413.721 131.582 411.456 129.218 410.194 126.305C408.931 123.392 408.755 120.123 409.696 117.091C410.638 114.059 412.635 111.465 415.325 109.779C418.016 108.094 421.221 107.429 424.36 107.905C427.499 108.381 430.364 109.966 432.434 112.373C434.504 114.78 435.642 117.85 435.643 121.025Z" fill="#FFB0B1"/>
<path opacity="0.1" d="M458.804 165.66C456.987 164.542 455.507 162.952 454.522 161.06C453.774 159.583 453.278 157.878 452.002 156.831C450.852 155.891 449.317 155.663 447.886 155.243C443.178 153.851 439.232 149.555 439.084 144.651C439.012 142.342 439.733 140.038 439.406 137.751C439.22 136.457 438.706 135.232 437.911 134.194C437.517 133.697 437.085 133.232 436.618 132.802C435.992 132.211 435.334 131.639 434.761 131.012C434.4 130.624 434.085 130.196 433.822 129.737C433.609 129.361 433.436 128.963 433.307 128.551C432.412 125.812 433.226 122.564 432.242 119.794L432.188 119.642C431.817 118.657 431.061 117.673 430.009 117.597C428.958 117.521 428.058 118.393 427.056 118.783C424.957 119.597 422.693 118.21 420.943 116.796C419.194 115.382 417.221 113.767 414.997 114.08C413.524 114.29 412.361 115.292 411.005 115.812C410.699 115.93 410.383 116.021 410.061 116.085C411.208 113.223 413.317 110.85 416.023 109.374C418.73 107.898 421.866 107.411 424.893 107.996C427.92 108.581 430.649 110.202 432.611 112.58C434.572 114.959 435.644 117.946 435.643 121.029C435.644 121.96 435.547 122.889 435.352 123.799C435.374 123.862 435.397 123.92 435.424 123.982C435.943 125.325 436.529 126.703 437.043 127.893L439.572 130.184C439.572 130.184 440.646 131.079 442.256 132.422C445.76 135.375 451.814 140.574 454.938 143.756C457.685 146.566 458.544 157.457 458.804 165.66Z" fill="black"/>
<path d="M410.849 107.636C411.488 106.334 411.806 104.875 412.571 103.64C413.695 101.85 415.654 100.705 417.668 100.011C422.926 98.199 434.036 95.5679 437.357 100.011C438.01 100.906 438.551 101.9 439.455 102.517C440.144 102.987 440.977 103.188 441.733 103.542C443.849 104.535 445.201 106.701 445.921 108.911C446.642 111.122 446.856 113.493 447.384 115.771C448.06 118.693 449.246 121.463 450.427 124.215C451.819 127.463 453.296 130.833 455.98 133.128C459.645 136.261 460.455 140.695 463.856 144.132C467.883 148.213 467.753 154.947 465.677 160.294C465.404 160.997 465.095 161.731 465.203 162.478C465.31 163.225 465.865 163.905 466.388 164.5L468.59 166.984C463.381 168.241 457.488 165.521 455.063 160.746C454.316 159.27 453.819 157.569 452.539 156.518C451.394 155.578 449.854 155.354 448.427 154.934C443.72 153.537 439.773 149.237 439.625 144.333C439.554 142.029 440.274 139.724 439.948 137.442C439.766 136.139 439.249 134.906 438.449 133.862C437.218 132.256 435.361 131.177 434.359 129.388C432.663 126.394 433.951 122.505 432.73 119.293C432.354 118.308 431.602 117.324 430.551 117.248C429.499 117.172 428.6 118.044 427.593 118.434C425.499 119.248 423.235 117.865 421.485 116.447C419.735 115.028 417.762 113.417 415.534 113.735C414.061 113.941 412.903 114.943 411.547 115.467C410.544 115.852 408.513 116.196 407.636 115.35C405.783 113.646 410.074 109.229 410.849 107.636Z" fill="#591D4B"/>
<path opacity="0.1" d="M456.307 159.269C455.555 157.793 455.063 156.092 453.783 155.045C452.638 154.106 451.098 153.877 449.667 153.457C444.964 152.065 441.017 147.765 440.865 142.861C440.793 140.556 441.514 138.247 441.191 135.965C441.004 134.671 440.488 133.446 439.692 132.408C438.457 130.801 436.6 129.723 435.603 127.933C433.907 124.944 435.195 121.056 433.969 117.838C433.598 116.858 432.842 115.874 431.795 115.793C430.748 115.713 429.839 116.594 428.837 116.984C426.743 117.798 424.474 116.411 422.729 114.997C420.984 113.583 419.001 111.968 416.778 112.281C415.305 112.491 414.142 113.493 412.791 114.012C411.788 114.397 409.752 114.746 408.875 113.901C407.032 112.111 411.323 107.703 412.093 106.119C412.732 104.813 413.05 103.358 413.82 102.123C413.86 102.056 413.905 101.989 413.95 101.922C413.374 102.399 412.877 102.964 412.477 103.595C411.712 104.83 411.395 106.28 410.755 107.591C409.981 109.175 405.689 113.596 407.537 115.373C408.432 116.223 410.446 115.874 411.448 115.489C412.791 114.966 413.963 113.963 415.435 113.757C417.672 113.44 419.641 115.055 421.387 116.469C423.132 117.883 425.414 119.27 427.499 118.456C428.501 118.067 429.378 117.19 430.452 117.27C431.526 117.351 432.242 118.331 432.631 119.315C433.853 122.528 432.564 126.416 434.26 129.41C435.262 131.168 437.119 132.269 438.35 133.885C439.151 134.928 439.667 136.162 439.849 137.464C440.176 139.746 439.455 142.051 439.527 144.355C439.675 149.277 443.621 153.56 448.329 154.956C449.747 155.376 451.295 155.6 452.441 156.54C453.725 157.591 454.231 159.292 454.965 160.768C457.39 165.543 463.283 168.264 468.492 167.006L467.453 165.834C462.938 165.901 458.37 163.332 456.307 159.269Z" fill="black"/>
<path opacity="0.1" d="M425.458 138.847C424.872 139.742 423.194 144.324 421.794 148.324C420.483 147.814 419.292 144.561 419.292 144.561L426.282 134.618C426.998 135.603 426.528 137.236 425.458 138.847Z" fill="black"/>
<path d="M425.727 138.579C425.141 139.474 423.463 144.056 422.062 148.056C420.751 147.55 419.561 144.293 419.561 144.293L426.55 134.354C427.266 135.334 426.796 136.972 425.727 138.579Z" fill="#DCE7FF"/>
<path d="M385.088 184.292L381.213 172.071C381.167 171.928 381.15 171.778 381.162 171.628C381.175 171.478 381.217 171.332 381.286 171.199C381.355 171.065 381.449 170.947 381.564 170.85C381.679 170.753 381.812 170.68 381.955 170.635C382.244 170.545 382.556 170.573 382.824 170.712C383.093 170.851 383.295 171.09 383.387 171.378L387.262 183.585L386.878 186.14L385.088 184.292Z" fill="#BE8B87"/>
<path opacity="0.1" d="M381.58 170.998C381.869 170.907 382.182 170.934 382.451 171.073C382.721 171.212 382.924 171.452 383.016 171.741L386.891 183.948L386.6 185.863L386.882 186.158L387.267 183.603L383.37 171.396C383.277 171.109 383.075 170.869 382.807 170.73C382.538 170.591 382.226 170.564 381.938 170.654C381.695 170.732 381.486 170.89 381.343 171.101C381.419 171.06 381.498 171.026 381.58 170.998Z" fill="white"/>
<path d="M385.088 184.292L387.262 183.603L386.945 185.697L386.878 186.158L386.242 185.495L385.088 184.292Z" fill="#EFC8C4"/>
<path d="M386.242 185.495C386.28 185.448 386.327 185.408 386.381 185.379C386.412 185.359 386.449 185.349 386.486 185.349C386.523 185.349 386.56 185.359 386.591 185.379C386.622 185.416 386.647 185.457 386.667 185.5C386.697 185.549 386.737 185.591 386.785 185.623C386.833 185.655 386.888 185.675 386.945 185.683L386.878 186.131L386.242 185.495Z" fill="#727A9C"/>
<path d="M381.19 176.412C381.19 176.412 388.963 176.367 387.133 179.674C385.303 182.981 382.443 183.379 382.443 183.379L381.19 176.412Z" fill="#FFB0B1"/>
<path d="M332.85 28.0088H332.515C319.162 28.0088 307.354 35.0743 300.561 45.5003C293.768 35.0743 281.96 28.0088 268.607 28.0088H268.272C258.251 28.1043 248.673 32.1506 241.619 39.2683C234.565 46.3861 230.605 56.0002 230.599 66.0213C230.599 78.4654 236.049 96.1225 246.677 110.652C266.925 138.337 300.561 162.558 300.561 162.558C300.561 162.558 334.197 138.341 354.441 110.652C365.073 96.1225 370.518 78.4654 370.518 66.0213C370.513 56.0009 366.553 46.3875 359.5 39.2699C352.447 32.1523 342.87 28.1055 332.85 28.0088ZM328.049 112.782C326.528 112.776 325.045 112.31 323.794 111.446C322.542 110.582 321.581 109.36 321.037 107.94H313.054C312.529 107.937 312.017 107.77 311.591 107.461C311.165 107.153 310.846 106.72 310.678 106.222L308.226 98.8341L300.467 125.946C300.316 126.468 300 126.927 299.565 127.254C299.131 127.581 298.603 127.758 298.06 127.759H297.903C297.336 127.731 296.796 127.51 296.372 127.132C295.949 126.754 295.668 126.242 295.576 125.682L287.58 77.5883L281.736 106.047C281.602 106.588 281.291 107.068 280.852 107.411C280.413 107.754 279.872 107.94 279.315 107.94H268.07C267.733 107.954 267.397 107.9 267.081 107.781C266.765 107.662 266.477 107.48 266.234 107.247C265.99 107.013 265.796 106.733 265.664 106.423C265.531 106.112 265.463 105.778 265.463 105.441C265.463 105.104 265.531 104.77 265.664 104.459C265.796 104.149 265.99 103.869 266.234 103.635C266.477 103.402 266.765 103.22 267.081 103.101C267.397 102.982 267.733 102.928 268.07 102.942H277.346L285.624 64.6789C285.76 64.1131 286.089 63.6122 286.553 63.2617C287.017 62.9111 287.589 62.7328 288.17 62.7571C288.752 62.7814 289.306 63.0069 289.74 63.3949C290.173 63.783 290.458 64.3096 290.547 64.8847L298.713 113.945L305.667 89.6879C305.811 89.177 306.118 88.7266 306.539 88.4041C306.961 88.0815 307.476 87.904 308.007 87.898H308.056C308.582 87.8982 309.094 88.0644 309.52 88.3729C309.946 88.6815 310.264 89.1166 310.428 89.6163L314.862 102.955H320.939C321.371 101.643 322.157 100.475 323.211 99.5811C324.265 98.6872 325.545 98.1018 326.91 97.8895C328.276 97.6772 329.673 97.8464 330.949 98.3782C332.224 98.9101 333.328 99.784 334.138 100.903C334.948 102.023 335.433 103.345 335.54 104.722C335.646 106.1 335.37 107.48 334.741 108.711C334.113 109.942 333.156 110.975 331.978 111.696C330.799 112.418 329.444 112.8 328.062 112.8L328.049 112.782Z" fill="#6C63FF"/>
</g>
</g>
<defs>
<filter id="filter0_d_2217_350" x="0.00787163" y="0.751968" width="532.796" height="384.236" filterUnits="userSpaceOnUse" color-interpolation-filters="sRGB">
<feFlood flood-opacity="0" result="BackgroundImageFix"/>
<feColorMatrix in="SourceAlpha" type="matrix" values="0 0 0 0 0 0 0 0 0 0 0 0 0 0 0 0 0 0 127 0" result="hardAlpha"/>
<feOffset dy="12.7441"/>
<feGaussianBlur stdDeviation="8.49606"/>
<feComposite in2="hardAlpha" operator="out"/>
<feColorMatrix type="matrix" values="0 0 0 0 0 0 0 0 0 0 0 0 0 0 0 0 0 0 0.35 0"/>
<feBlend mode="normal" in2="BackgroundImageFix" result="effect1_dropShadow_2217_350"/>
<feBlend mode="normal" in="SourceGraphic" in2="effect1_dropShadow_2217_350" result="shape"/>
</filter>
<linearGradient id="paint0_linear_2217_350" x1="176.447" y1="351.73" x2="176.447" y2="76.3843" gradientUnits="userSpaceOnUse">
<stop stop-color="#808080" stop-opacity="0.25"/>
<stop offset="0.54" stop-color="#808080" stop-opacity="0.12"/>
<stop offset="1" stop-color="#808080" stop-opacity="0.1"/>
</linearGradient>
<linearGradient id="paint1_linear_2217_350" x1="416.782" y1="348.249" x2="416.782" y2="96.7714" gradientUnits="userSpaceOnUse">
<stop stop-color="#808080" stop-opacity="0.25"/>
<stop offset="0.54" stop-color="#808080" stop-opacity="0.12"/>
<stop offset="1" stop-color="#808080" stop-opacity="0.1"/>
</linearGradient>
<clipPath id="clip0_2217_350">
<rect width="494.471" height="350.252" fill="white" transform="translate(17 5)"/>
</clipPath>
</defs>
</svg>
