<svg width="61" height="61" viewBox="0 0 61 61" fill="none" xmlns="http://www.w3.org/2000/svg">
<path d="M53.25 56.54H30.75C29.7146 56.54 28.875 55.7004 28.875 54.665V5.91504C28.875 4.87966 29.7146 4.04004 30.75 4.04004H53.25C54.2854 4.04004 55.125 4.87966 55.125 5.91504V54.665C55.125 55.7004 54.2854 56.54 53.25 56.54ZM32.625 52.79H51.375V7.79004H32.625V52.79Z" fill="#FF684C"/>
<path d="M45.75 56.54H38.25C37.2146 56.54 36.375 55.7004 36.375 54.665V43.415C36.375 42.3797 37.2146 41.54 38.25 41.54H45.75C46.7854 41.54 47.625 42.3797 47.625 43.415V54.665C47.625 55.7004 46.7854 56.54 45.75 56.54ZM40.125 52.79H43.875V45.29H40.125V52.79Z" fill="#FF684C"/>
<path d="M30.75 56.54H8.25C7.21462 56.54 6.375 55.7004 6.375 54.665V24.665C6.375 23.6297 7.21462 22.79 8.25 22.79H30.75C31.7854 22.79 32.625 23.6297 32.625 24.665V54.665C32.625 55.7004 31.7854 56.54 30.75 56.54ZM10.125 52.79H28.875V26.54H10.125V52.79Z" fill="#FF684C"/>
<path d="M45.75 15.29H43.875V13.415C43.875 12.3797 43.0354 11.54 42 11.54C40.9646 11.54 40.125 12.3797 40.125 13.415V15.29H38.25C37.2146 15.29 36.375 16.1297 36.375 17.165C36.375 18.2004 37.2146 19.04 38.25 19.04H40.125V20.915C40.125 21.9504 40.9646 22.79 42 22.79C43.0354 22.79 43.875 21.9504 43.875 20.915V19.04H45.75C46.7854 19.04 47.625 18.2004 47.625 17.165C47.625 16.1297 46.7854 15.29 45.75 15.29Z" fill="#FF684C"/>
<path d="M15.75 37.79C14.7146 37.79 13.875 36.9504 13.875 35.915V32.165C13.875 31.1297 14.7146 30.29 15.75 30.29C16.7854 30.29 17.625 31.1297 17.625 32.165V35.915C17.625 36.9504 16.7854 37.79 15.75 37.79Z" fill="#FF684C"/>
<path d="M15.75 49.04C14.7146 49.04 13.875 48.2004 13.875 47.165V43.415C13.875 42.3797 14.7146 41.54 15.75 41.54C16.7854 41.54 17.625 42.3797 17.625 43.415V47.165C17.625 48.2004 16.7854 49.04 15.75 49.04Z" fill="#FF684C"/>
<path d="M23.25 37.79C22.2146 37.79 21.375 36.9504 21.375 35.915V32.165C21.375 31.1297 22.2146 30.29 23.25 30.29C24.2854 30.29 25.125 31.1297 25.125 32.165V35.915C25.125 36.9504 24.2854 37.79 23.25 37.79Z" fill="#FF684C"/>
<path d="M23.25 49.04C22.2146 49.04 21.375 48.2004 21.375 47.165V43.415C21.375 42.3797 22.2146 41.54 23.25 41.54C24.2854 41.54 25.125 42.3797 25.125 43.415V47.165C25.125 48.2004 24.2854 49.04 23.25 49.04Z" fill="#FF684C"/>
<path d="M45.75 37.79H38.25C37.2146 37.79 36.375 36.9504 36.375 35.915C36.375 34.8797 37.2146 34.04 38.25 34.04H45.75C46.7854 34.04 47.625 34.8797 47.625 35.915C47.625 36.9504 46.7854 37.79 45.75 37.79Z" fill="#FF684C"/>
</svg>
