<svg width="61" height="60" viewBox="0 0 61 60" fill="none" xmlns="http://www.w3.org/2000/svg">
<path d="M34.35 37.5H41.85V54.375H45.6V35.625C45.6 34.5887 44.7613 33.75 43.725 33.75H32.475C31.4387 33.75 30.6 34.5887 30.6 35.625V54.375H34.35V37.5Z" fill="#2AA7FF"/>
<path d="M51.225 18.75H41.85V22.5H49.35V52.5H11.85V22.5H19.35V18.75H9.97504C8.93872 18.75 8.10004 19.5887 8.10004 20.625V54.375C8.10004 55.4113 8.93872 56.25 9.97504 56.25H51.225C52.2613 56.25 53.1 55.4113 53.1 54.375V20.625C53.1 19.5887 52.2613 18.75 51.225 18.75Z" fill="#2AA7FF"/>
<path d="M19.35 18.75H8.10004V15H19.35V11.25H6.22504C5.18872 11.25 4.35004 12.0887 4.35004 13.125V20.625C4.35004 21.6613 5.18872 22.5 6.22504 22.5H19.35V18.75Z" fill="#2AA7FF"/>
<path d="M54.975 11.25H41.85V15H53.1V18.75H41.85V22.5H54.975C56.0113 22.5 56.85 21.6613 56.85 20.625V13.125C56.85 12.0887 56.0113 11.25 54.975 11.25Z" fill="#2AA7FF"/>
<path d="M41.85 30H19.35C18.3137 30 17.475 29.1613 17.475 28.125V5.625C17.475 4.58869 18.3137 3.75 19.35 3.75H41.85C42.8863 3.75 43.725 4.58869 43.725 5.625V28.125C43.725 29.1613 42.8863 30 41.85 30ZM21.225 26.25H39.975V7.5H21.225V26.25Z" fill="#2AA7FF"/>
<path d="M34.35 15H32.475V13.125C32.475 12.0887 31.6363 11.25 30.6 11.25C29.5637 11.25 28.725 12.0887 28.725 13.125V15H26.85C25.8137 15 24.975 15.8387 24.975 16.875C24.975 17.9113 25.8137 18.75 26.85 18.75H28.725V20.625C28.725 21.6613 29.5637 22.5 30.6 22.5C31.6363 22.5 32.475 21.6613 32.475 20.625V18.75H34.35C35.3863 18.75 36.225 17.9113 36.225 16.875C36.225 15.8387 35.3863 15 34.35 15Z" fill="#2AA7FF"/>
<path d="M24.975 45H17.475C16.4387 45 15.6 44.1613 15.6 43.125V39.375C15.6 36.2732 18.1232 33.75 21.225 33.75C24.3268 33.75 26.85 36.2732 26.85 39.375V43.125C26.85 44.1613 26.0113 45 24.975 45ZM19.35 41.25H23.1V39.375C23.1 38.3404 22.2597 37.5 21.225 37.5C20.1904 37.5 19.35 38.3404 19.35 39.375V41.25Z" fill="#2AA7FF"/>
</svg>
