<?xml version="1.0" standalone="no"?>
<!DOCTYPE svg PUBLIC "-//W3C//DTD SVG 20010904//EN"
 "http://www.w3.org/TR/2001/REC-SVG-20010904/DTD/svg10.dtd">
<svg version="1.0" xmlns="http://www.w3.org/2000/svg"
 width="283.000000pt" height="222.000000pt" viewBox="0 0 283.000000 222.000000"
 preserveAspectRatio="xMidYMid meet">

<g transform="translate(0.000000,222.000000) scale(0.100000,-0.100000)"
fill="#000000" stroke="none">
<path d="M2050 1489 c0 -321 2 -389 14 -398 9 -8 16 -8 20 -2 16 25 87 354 92
426 10 130 -22 241 -95 325 l-30 35 -1 -386z"/>
<path d="M1250 1820 l0 -41 41 33 c40 32 40 33 17 39 -52 15 -58 12 -58 -31z"/>
<path d="M1402 1095 c0 -53 1 -57 10 -32 7 20 7 39 0 60 -9 29 -10 27 -10 -28z"/>
<path d="M537 1066 c-4 -10 -1 -13 8 -9 8 3 12 9 9 14 -7 12 -11 11 -17 -5z"/>
<path d="M1334 348 c-26 -23 -32 -33 -22 -38 23 -13 311 -79 368 -85 30 -4 66
-9 80 -11 18 -4 22 -2 14 6 -6 6 -21 12 -33 15 -13 2 -29 9 -37 16 -8 6 -14 8
-14 4 0 -3 -16 3 -35 15 -19 12 -35 19 -35 16 0 -4 -11 1 -25 10 -14 9 -25 13
-25 9 0 -4 -11 0 -25 9 -14 9 -25 14 -25 10 0 -3 -16 4 -35 16 -19 12 -35 19
-35 15 0 -3 -10 0 -22 7 -40 21 -57 19 -94 -14z"/>
</g>
</svg>
