<svg width="326" height="280" viewBox="0 0 326 280" fill="none" xmlns="http://www.w3.org/2000/svg">
<g clip-path="url(#clip0_2213_21678)">
<path d="M0.5 277.164C0.5 277.573 0.828223 277.901 1.23694 277.901H324.665C325.074 277.901 325.402 277.573 325.402 277.164C325.402 276.755 325.074 276.427 324.665 276.427H1.23694C0.828218 276.427 0.5 276.755 0.5 277.164Z" fill="#3F3C57"/>
<path d="M106.025 29.7568L109.542 45.8064L102.061 68.1459L90.0083 44.1439L91.6807 30.2194L106.025 29.7568Z" fill="#FDB4B4"/>
<path d="M110.196 44.9751H89.3849V70.12H110.196V44.9751Z" fill="#6C63FF"/>
<path d="M101.638 37.8413C109.487 37.8413 115.85 31.4782 115.85 23.6289C115.85 15.7796 109.487 9.4165 101.638 9.4165C93.7888 9.4165 87.4257 15.7796 87.4257 23.6289C87.4257 31.4782 93.7888 37.8413 101.638 37.8413Z" fill="#FDB4B4"/>
<path d="M89.2668 34.1974C89.2668 34.1974 78.6728 14.6321 88.2245 5.21682C97.7762 -4.19848 105.444 2.00561 105.444 2.00561L109.822 1.82866C109.822 1.82866 110.736 5.27447 112.208 3.4091C113.68 1.54374 116.341 8.33715 116.341 8.33715C121.28 17.2313 104.16 19.2238 104.16 19.2238C104.16 19.2238 105.396 23.1618 104.139 23.9866C102.883 24.8113 99.5254 27.9137 99.5254 27.9137L96.5204 30.1833L94.7346 27.4624C94.7346 27.4624 92.8692 25.9899 91.9268 26.6085C90.9844 27.227 92.2807 35.3655 92.2807 35.3655L89.2668 34.1974Z" fill="#2E2E41"/>
<path d="M72.217 178.136L66.7833 259.189L80.1413 259.642L97.801 178.815L72.217 178.136Z" fill="#2E2E41"/>
<path d="M104.593 177.683L99.1594 258.736L112.517 259.189L130.177 178.362L104.593 177.683Z" fill="#2E2E41"/>
<path d="M68.945 196.654L76.0561 108.375L65.1509 62.4064C64.2107 55.5731 68.5162 49.1074 75.1613 47.3443L85.8322 44.5133L90.5552 39.79L101.298 63.5137L108.007 39.8081L113.24 43.6137L128.759 50.4605L128.752 50.6208L126.263 106.151L131.82 195.868L131.573 195.871L68.945 196.654Z" fill="#E8E9EA"/>
<path d="M111.66 258.268L115.528 269.815C115.528 269.815 130.659 271.872 130.895 276.557C131.13 281.241 110.33 278.53 98.1499 279.142C85.9699 279.754 96.1088 266.564 96.1088 266.564L97.4067 258.984L111.66 258.268Z" fill="#2E2E41"/>
<path d="M80.0727 257.437L83.9405 268.984C83.9405 268.984 99.0725 271.041 99.308 275.726C99.5434 280.41 78.7428 277.698 66.5629 278.311C54.383 278.923 64.5218 265.733 64.5218 265.733L65.8197 258.153L80.0727 257.437Z" fill="#2E2E41"/>
<path d="M61.202 149.77C61.038 147.493 61.4217 145.211 62.321 143.113L59.4343 119.432L70.7423 118.388L72.4527 142.522C73.5891 144.5 74.2352 146.722 74.3368 149.002C74.6693 154.704 71.9986 159.496 68.3711 159.708C64.7436 159.919 61.5337 155.47 61.202 149.77Z" fill="#FDB4B4"/>
<path d="M132.824 153.246C132.685 150.968 133.093 148.689 134.016 146.601L131.387 122.891L142.706 121.97L144.153 146.121C145.268 148.112 145.89 150.341 145.966 152.621C146.237 158.327 143.514 163.089 139.884 163.261C136.255 163.433 133.094 158.949 132.824 153.246Z" fill="#FDB4B4"/>
<path d="M59.3878 140.274L59.3496 140.069L53.4562 108.448L60.4199 56.9573C61.0412 52.3603 65.1461 49.0487 69.775 49.4188C72.1924 49.6124 74.3613 50.7589 75.8827 52.6477C77.4039 54.5365 78.0621 56.9001 77.736 59.3033L72.4949 97.9209L75.7948 139.226L59.3878 140.274Z" fill="#E8E9EA"/>
<path d="M129.332 139.532L117.483 60.4397C116.867 58.1205 117.227 55.6935 118.503 53.6311C119.779 51.5687 121.789 50.1625 124.164 49.6712C128.708 48.7315 133.195 51.5089 134.38 55.9933L145.763 138.538L129.332 139.532Z" fill="#E8E9EA"/>
<path d="M101.646 70.7438C102.449 70.7438 103.1 70.0925 103.1 69.2891C103.1 68.4857 102.449 67.8345 101.646 67.8345C100.842 67.8345 100.191 68.4857 100.191 69.2891C100.191 70.0925 100.842 70.7438 101.646 70.7438Z" fill="#D6D7D8"/>
<path d="M101.646 81.7575C102.449 81.7575 103.1 81.1062 103.1 80.3028C103.1 79.4994 102.449 78.8481 101.646 78.8481C100.842 78.8481 100.191 79.4994 100.191 80.3028C100.191 81.1062 100.842 81.7575 101.646 81.7575Z" fill="#D6D7D8"/>
<path d="M101.646 92.7711C102.449 92.7711 103.1 92.1199 103.1 91.3165C103.1 90.5131 102.449 89.8618 101.646 89.8618C100.842 89.8618 100.191 90.5131 100.191 91.3165C100.191 92.1199 100.842 92.7711 101.646 92.7711Z" fill="#D6D7D8"/>
<path d="M101.646 103.785C102.449 103.785 103.1 103.134 103.1 102.331C103.1 101.527 102.449 100.876 101.646 100.876C100.842 100.876 100.191 101.527 100.191 102.331C100.191 103.134 100.842 103.785 101.646 103.785Z" fill="#D6D7D8"/>
<path d="M101.646 114.799C102.449 114.799 103.1 114.148 103.1 113.344C103.1 112.541 102.449 111.89 101.646 111.89C100.842 111.89 100.191 112.541 100.191 113.344C100.191 114.148 100.842 114.799 101.646 114.799Z" fill="#D6D7D8"/>
<path d="M101.646 125.813C102.449 125.813 103.1 125.162 103.1 124.358C103.1 123.555 102.449 122.904 101.646 122.904C100.842 122.904 100.191 123.555 100.191 124.358C100.191 125.162 100.842 125.813 101.646 125.813Z" fill="#D6D7D8"/>
<path d="M101.646 136.827C102.449 136.827 103.1 136.176 103.1 135.372C103.1 134.569 102.449 133.917 101.646 133.917C100.842 133.917 100.191 134.569 100.191 135.372C100.191 136.176 100.842 136.827 101.646 136.827Z" fill="#D6D7D8"/>
<path d="M101.646 147.841C102.449 147.841 103.1 147.19 103.1 146.386C103.1 145.583 102.449 144.932 101.646 144.932C100.842 144.932 100.191 145.583 100.191 146.386C100.191 147.19 100.842 147.841 101.646 147.841Z" fill="#D6D7D8"/>
<path d="M101.647 156.36L74.1235 152.692L73.5934 152.622L59.5266 120.187L51.1494 100.876H72.9696L101.647 156.36Z" fill="#6C63FF"/>
<path d="M212.003 33.2856L229.502 23.6992V51.089H209.264L212.003 33.2856Z" fill="#2E2E41"/>
<path d="M233.254 39.392L234.869 52.8387L223.23 76.0171L216.005 54.4442L219.402 38.9453L233.254 39.392Z" fill="#FDB4B4"/>
<path d="M235.471 53.6416H215.374V77.9237H235.471V53.6416Z" fill="#6C63FF"/>
<path d="M252.05 182.232L257.297 260.505L244.398 260.942L227.344 182.888L252.05 182.232Z" fill="#2E2E41"/>
<path d="M220.785 181.795L226.032 260.068L213.133 260.505L196.079 182.451L220.785 181.795Z" fill="#2E2E41"/>
<path d="M265.679 198.834L265.371 198.833L183.194 198.565L183.268 198.274L204.396 114.566L199.103 72.3221C198.101 64.3173 202.386 56.7511 209.766 53.495L212.431 52.3197L217.493 48.6385L223.968 71.5205L234.338 48.6206L238.907 53.1881L249.209 55.9216C255.63 57.6251 259.79 63.8728 258.886 70.4541L258.875 70.4999L243.142 115.393L265.679 198.834Z" fill="#E8E9EA"/>
<path d="M213.961 259.616L227.725 260.308L228.978 267.627C228.978 267.627 238.769 280.364 227.007 279.773C215.245 279.182 195.158 281.801 195.386 277.277C195.613 272.753 210.226 270.766 210.226 270.766L213.961 259.616Z" fill="#2E2E41"/>
<path d="M244.464 258.813L258.228 259.505L259.481 266.824C259.481 266.824 269.272 279.562 257.51 278.97C245.748 278.379 225.661 280.998 225.889 276.474C226.116 271.95 240.729 269.963 240.729 269.963L244.464 258.813Z" fill="#2E2E41"/>
<path d="M257.068 154.038C256.748 159.542 253.648 163.839 250.145 163.634C246.642 163.43 244.063 158.803 244.384 153.296C244.482 151.095 245.106 148.949 246.203 147.038L247.855 123.733L258.775 124.741L255.988 147.609C256.856 149.635 257.227 151.839 257.068 154.038Z" fill="#FDB4B4"/>
<path d="M200.951 151.944C200.514 157.441 197.324 161.67 193.826 161.391C190.328 161.112 187.848 156.431 188.286 150.933C188.431 148.734 189.1 146.602 190.238 144.715L192.386 121.45L203.282 122.691L200.008 145.494C200.833 147.538 201.157 149.75 200.951 151.944Z" fill="#FDB4B4"/>
<path d="M258.827 144.875L242.967 143.863L242.986 143.625L246.154 103.968L241.094 66.6762C240.778 64.3534 241.414 62.0686 242.885 60.243C244.355 58.4172 246.452 57.3089 248.789 57.1218C253.263 56.7691 257.23 59.9652 257.831 64.4086L264.556 114.134L264.549 114.171L258.827 144.875Z" fill="#E8E9EA"/>
<path d="M203.592 143.356L187.707 142.396L187.742 142.145L198.696 62.702C199.848 58.3388 204.186 55.655 208.576 56.5629C210.872 57.0377 212.815 58.397 214.048 60.3907C215.281 62.3843 215.63 64.7301 215.029 66.9961L203.592 143.356Z" fill="#E8E9EA"/>
<path d="M223.631 78.5258C224.407 78.5258 225.036 77.8969 225.036 77.1211C225.036 76.3452 224.407 75.7163 223.631 75.7163C222.855 75.7163 222.227 76.3452 222.227 77.1211C222.227 77.8969 222.855 78.5258 223.631 78.5258Z" fill="#D6D7D8"/>
<path d="M223.631 89.1615C224.407 89.1615 225.036 88.5326 225.036 87.7568C225.036 86.981 224.407 86.3521 223.631 86.3521C222.855 86.3521 222.227 86.981 222.227 87.7568C222.227 88.5326 222.855 89.1615 223.631 89.1615Z" fill="#D6D7D8"/>
<path d="M223.631 99.7978C224.407 99.7978 225.036 99.1688 225.036 98.393C225.036 97.6172 224.407 96.9883 223.631 96.9883C222.855 96.9883 222.227 97.6172 222.227 98.393C222.227 99.1688 222.855 99.7978 223.631 99.7978Z" fill="#D6D7D8"/>
<path d="M223.631 110.434C224.407 110.434 225.036 109.805 225.036 109.029C225.036 108.253 224.407 107.624 223.631 107.624C222.855 107.624 222.227 108.253 222.227 109.029C222.227 109.805 222.855 110.434 223.631 110.434Z" fill="#D6D7D8"/>
<path d="M223.631 121.07C224.407 121.07 225.036 120.441 225.036 119.665C225.036 118.889 224.407 118.26 223.631 118.26C222.855 118.26 222.227 118.889 222.227 119.665C222.227 120.441 222.855 121.07 223.631 121.07Z" fill="#D6D7D8"/>
<path d="M223.631 131.705C224.407 131.705 225.036 131.077 225.036 130.301C225.036 129.525 224.407 128.896 223.631 128.896C222.855 128.896 222.227 129.525 222.227 130.301C222.227 131.077 222.855 131.705 223.631 131.705Z" fill="#D6D7D8"/>
<path d="M223.631 142.341C224.407 142.341 225.036 141.712 225.036 140.936C225.036 140.161 224.407 139.532 223.631 139.532C222.855 139.532 222.227 140.161 222.227 140.936C222.227 141.712 222.855 142.341 223.631 142.341Z" fill="#D6D7D8"/>
<path d="M223.631 152.977C224.407 152.977 225.036 152.349 225.036 151.573C225.036 150.797 224.407 150.168 223.631 150.168C222.855 150.168 222.227 150.797 222.227 151.573C222.227 152.349 222.855 152.977 223.631 152.977Z" fill="#D6D7D8"/>
<path d="M225.764 46.2547C233.02 46.2547 238.903 40.372 238.903 33.1154C238.903 25.8588 233.02 19.9761 225.764 19.9761C218.507 19.9761 212.624 25.8588 212.624 33.1154C212.624 40.372 218.507 46.2547 225.764 46.2547Z" fill="#FDB4B4"/>
<path d="M232.649 17.777C233.279 19.0575 232.281 20.657 230.959 21.1954C229.638 21.7337 228.145 21.5156 226.736 21.2915C225.326 21.0674 223.831 20.8549 222.514 21.4028C220.809 22.1117 219.848 23.89 219.02 25.5403C217.474 28.621 215.928 31.7017 214.382 34.7824C213.627 36.2876 212.855 37.8604 212.84 39.5444C212.813 42.6355 215.265 45.1057 216.585 47.9012C218.191 51.3049 218.059 55.4761 216.24 58.771C214.421 62.0659 210.961 64.4004 207.225 64.8545C206.242 64.974 205.202 64.961 204.318 64.5144C203.434 64.0678 202.759 63.0926 202.923 62.1159C203.243 60.2057 206.162 59.7594 206.698 57.8982C206.978 56.9266 206.482 55.8891 205.814 55.1302C205.146 54.3714 204.301 53.7794 203.664 52.9945C202.194 51.1845 202.097 48.3904 203.436 46.482C204.223 45.3605 205.44 44.5272 205.949 43.255C206.382 42.1706 206.225 40.9517 206.061 39.7954C205.85 38.3097 205.639 36.8239 205.428 35.3381C205.181 33.6047 204.939 31.8091 205.426 30.1272C206.54 26.273 210.892 24.4628 213.445 21.367C214.63 19.9283 215.428 18.1982 216.645 16.7854C218.687 14.4147 221.901 13.1068 225.018 13.3787C228.135 13.6506 231.075 15.4952 232.675 18.1836" fill="#2E2E41"/>
<path d="M230.575 18.02C229.933 18.2496 229.695 19.0857 229.88 19.7419C230.065 20.3981 230.549 20.9195 230.991 21.4378C236 27.2998 237.165 36.1667 233.839 43.1231C232.954 44.9734 231.776 46.7148 231.298 48.7095C230.951 50.1608 230.97 51.7528 230.165 53.0093C229.345 54.2885 227.721 55.1456 227.56 56.6564C227.457 57.6259 228.048 58.5677 228.84 59.1361C229.632 59.7045 230.6 59.9646 231.552 60.1767C234.025 60.7278 236.554 61.0287 239.088 61.0733C239.914 61.0878 240.766 61.0699 241.524 60.7408C242.282 60.4117 242.929 59.6978 242.937 58.8717C242.944 58.2224 242.57 57.6234 242.522 56.9758C242.379 55.0355 244.99 54.0032 245.499 52.1252C245.833 50.8905 245.174 49.62 244.472 48.5507C243.77 47.4813 242.969 46.3584 242.986 45.0794C243.003 43.8549 243.771 42.7766 244.07 41.589C244.483 39.9463 243.976 38.2281 243.472 36.6108C243.044 35.2358 242.616 33.8608 242.189 32.4858C241.734 31.0241 241.279 29.5624 240.824 28.1007C240.03 25.5489 239.196 22.9232 237.477 20.8765C235.759 18.8299 232.911 17.4885 230.373 18.3241" fill="#2E2E41"/>
<path d="M239.529 68.9352L238.628 68.6727C240.504 62.2395 236.459 50.2343 236.418 50.1138L237.306 49.811C237.478 50.3147 241.487 62.2203 239.529 68.9352Z" fill="#3F3C57"/>
<path d="M239.079 76.3243C241.243 76.3243 242.997 74.5699 242.997 72.4058C242.997 70.2417 241.243 68.4873 239.079 68.4873C236.914 68.4873 235.16 70.2417 235.16 72.4058C235.16 74.5699 236.914 76.3243 239.079 76.3243Z" fill="#3F3C57"/>
<path d="M213.332 86.2785H210.955C210.696 86.2785 210.486 86.0685 210.486 85.8094C210.486 85.5504 210.696 85.3404 210.955 85.3404H213.332C213.987 85.3404 214.602 85.0853 215.064 84.6217C215.527 84.1584 215.781 83.5425 215.779 82.888L215.751 68.2505C215.751 65.0707 213.164 62.4845 209.985 62.4845C206.806 62.4845 204.22 65.0707 204.22 68.2496L204.249 81.9503C204.251 83.2869 205.341 84.3826 206.678 84.3929L208.309 84.4053C208.568 84.4073 208.776 84.6187 208.774 84.878C208.772 85.1356 208.563 85.3434 208.305 85.3434H208.302L206.67 85.331C204.822 85.3168 203.314 83.8009 203.311 81.9521L203.282 68.2505C203.282 64.5535 206.289 61.5464 209.985 61.5464C213.681 61.5464 216.689 64.5535 216.689 68.2496L216.717 82.8861C216.719 83.7917 216.368 84.6435 215.728 85.2843C215.089 85.9253 214.237 86.2785 213.332 86.2785Z" fill="#3F3C57"/>
<path d="M208.305 86.5369C209.224 86.5369 209.968 85.7925 209.968 84.8744C209.968 83.9562 209.224 83.2119 208.305 83.2119C207.387 83.2119 206.643 83.9562 206.643 84.8744C206.643 85.7925 207.387 86.5369 208.305 86.5369Z" fill="#3F3C57"/>
<path d="M210.955 87.4719C211.873 87.4719 212.617 86.7276 212.617 85.8094C212.617 84.8913 211.873 84.147 210.955 84.147C210.037 84.147 209.292 84.8913 209.292 85.8094C209.292 86.7276 210.037 87.4719 210.955 87.4719Z" fill="#3F3C57"/>
<path d="M114.982 61.9043L114.081 61.6418C115.957 55.2086 111.957 43.0174 111.917 42.897L113.042 43.7455C113.214 44.2492 116.94 55.1894 114.982 61.9043Z" fill="#3F3C57"/>
<path d="M83.3255 63.0474L84.2261 62.7849C82.3499 56.3518 86.3954 44.3465 86.4362 44.2261L85.4729 44.8714C85.3011 45.375 81.3669 56.3325 83.3255 63.0474Z" fill="#3F3C57"/>
<path d="M114.532 69.2935C116.696 69.2935 118.45 67.5391 118.45 65.375C118.45 63.2109 116.696 61.4565 114.532 61.4565C112.367 61.4565 110.613 63.2109 110.613 65.375C110.613 67.5391 112.367 69.2935 114.532 69.2935Z" fill="#3F3C57"/>
<path d="M87.5031 87.1442H85.1267C84.8674 87.1442 84.6576 86.9342 84.6576 86.6752C84.6576 86.4161 84.8674 86.2061 85.1267 86.2061H87.5031C88.1581 86.2061 88.7733 85.951 89.2359 85.4874C89.6981 85.0241 89.9523 84.4082 89.9509 83.7537L89.9221 69.1162C89.9221 65.9364 87.3359 63.3502 84.157 63.3502C80.9781 63.3502 78.3914 65.9364 78.3914 69.1153L78.4203 82.816C78.423 84.1526 79.5127 85.2483 80.8493 85.2586L82.4805 85.271C82.7393 85.2731 82.9477 85.4844 82.9459 85.7437C82.944 86.0014 82.7343 86.2091 82.4768 86.2091H82.4732L80.842 86.1967C78.9933 86.1825 77.4858 84.6666 77.4822 82.8179L77.4533 69.1162C77.4533 65.4193 80.4605 62.4121 84.157 62.4121C87.853 62.4121 90.8602 65.4193 90.8602 69.1153L90.889 83.7518C90.8909 84.6574 90.5395 85.5092 89.8996 86.15C89.2602 86.7911 88.4087 87.1442 87.5031 87.1442Z" fill="#3F3C57"/>
<path d="M82.477 87.4026C83.3951 87.4026 84.1395 86.6583 84.1395 85.7401C84.1395 84.822 83.3951 84.0776 82.477 84.0776C81.5588 84.0776 80.8145 84.822 80.8145 85.7401C80.8145 86.6583 81.5588 87.4026 82.477 87.4026Z" fill="#3F3C57"/>
<path d="M85.1266 88.3376C86.0447 88.3376 86.7891 87.5933 86.7891 86.6752C86.7891 85.757 86.0447 85.0127 85.1266 85.0127C84.2084 85.0127 83.4641 85.757 83.4641 86.6752C83.4641 87.5933 84.2084 88.3376 85.1266 88.3376Z" fill="#3F3C57"/>
</g>
<defs>
<clipPath id="clip0_2213_21678">
<rect width="324.902" height="280" fill="white" transform="translate(0.5)"/>
</clipPath>
</defs>
</svg>
